<svg id="Layer_1" data-name="Layer 1" xmlns="http://www.w3.org/2000/svg" viewBox="0 0 342.69 264.37"><defs><style>.cls-1{opacity:0.19;}.cls-2{fill:#f96753;}.cls-3{fill:#bbd070;}.cls-4{fill:#97a43c;}.cls-5{fill:#48753a;}.cls-6{fill:#f9b253;}.cls-7{fill:#fff;}.cls-8{fill:#f74b3e;}.cls-9{fill:#fc6454;}.cls-10{fill:#f5f5f5;}.cls-11{fill:#eea886;}.cls-12{fill:#db9c7c;}.cls-13{fill:#323657;}.cls-14{fill:#e55e5e;}.cls-15{fill:#c73c3c;}.cls-16{fill:#efaa88;}.cls-17{fill:#424773;}.cls-18{fill:#292c47;}.cls-19{fill:#d88a51;}.cls-20{fill:#e2d2ca;}.cls-21{fill:#594a5f;}.cls-22{fill:#f9be78;}.cls-23{fill:#e8e8e8;}.cls-24{fill:#3a3f47;}.cls-25{fill:#a77860;}.cls-26{fill:#ffca55;}.cls-27{fill:#e28b23;}.cls-28{fill:#324470;}.cls-29{fill:#4a5893;}.cls-30{fill:#5d68a3;}.cls-31{fill:#ff8478;}.cls-32{fill:#8c241a;}.cls-33{fill:#b52618;}.cls-34{fill:#f25c4d;}.cls-35{fill:#dae8f5;}.cls-36{fill:#d6d6d6;}.cls-37{fill:#c2c2c2;}</style></defs><title>about-bg2</title><g id="OBJECTS"><g class="cls-1"><path class="cls-2" d="M339.9,158.21C334,141.68,324.63,136.65,315.75,126c-10.85-13-18.16-22.36-15.34-39C305,59.83,307-8.06,234.92.82c-25.83,3.18-46.24,23-61.08,42.73-12.64,16.79-35.36,18.29-53.66,22.19C97.71,70.55,74.79,77.84,54,88.49,11.19,110.44-1.6,142,.15,182.36c.53,12.2,2.25,31.42,22.86,53.9,27.81,30.34,68.22,34.41,116.86,20.47,11.14-3.19,21.66-8.19,32.61-12a154.18,154.18,0,0,1,35.2-7.64c27.93-2.7,56.89,2.18,83.69-6.16a88.28,88.28,0,0,0,37.42-23.17C341.6,194.35,346.16,175.66,339.9,158.21Z" transform="translate(0 -0.03)"/></g><path class="cls-3" d="M271.52,120.08s16.31,11.36,5,36-5.91,34.76-5.91,34.76S238.15,161.65,271.52,120.08Z" transform="translate(0 -0.03)"/><path class="cls-4" d="M299.59,118s16.1,18.47-4.82,44.57-17.47,39.71-17.47,39.71S247.21,157.7,299.59,118Z" transform="translate(0 -0.03)"/><path class="cls-5" d="M271.79,194.07c-9.86,2.11-1.58-26.25,13.13-35.18s27.95-9.95,36.15-18.49C321.08,140.4,320.34,183.64,271.79,194.07Z" transform="translate(0 -0.03)"/><path class="cls-6" d="M225.86,58c-.14-28.44-27.44-51.37-61-51.21s-60.61,23.36-60.47,51.81a44.9,44.9,0,0,0,5.38,21s18.72,36.16,21.51,70.49c.08,16.06,15.5,29,34.43,28.91s34.21-13.19,34.13-29.25c2.46-34.38,20.82-70.7,20.82-70.7h0A45,45,0,0,0,225.86,58Z" transform="translate(0 -0.03)"/><rect class="cls-7" x="144.39" y="72.08" width="2.25" height="78.12" transform="translate(-13.23 19.87) rotate(-7.48)"/><rect class="cls-7" x="146.77" y="111.35" width="78.24" height="2.25" transform="translate(52.64 284.06) rotate(-83.35)"/><polygon class="cls-7" points="181.82 85.69 173.34 77.3 165.07 85.64 156.88 77.53 148.9 85.58 140 76.78 141.09 75.67 148.88 83.39 156.87 75.33 165.06 83.45 173.32 75.11 181.81 83.5 189.59 75.64 190.69 76.73 181.82 85.69"/><path class="cls-8" d="M138.4,174.39l54.49-.26h0l.08,15.3a7.81,7.81,0,0,1-7.78,7.84l-38.87.19a7.79,7.79,0,0,1-7.84-7.77l-.08-15.3Z" transform="translate(0 -0.03)"/><path class="cls-9" d="M190,187.73l-48.55.24a11.74,11.74,0,0,1-11.79-11.68l-.12-25.45,72-.36.12,25.47A11.73,11.73,0,0,1,190,187.73Z" transform="translate(0 -0.03)"/><rect class="cls-10" x="67.18" y="52.15" width="80.89" height="122.83" rx="12.15"/><path class="cls-11" d="M71.44,168.15a4,4,0,0,1,.52,1.37,7.18,7.18,0,0,0,.63,1.61,14.86,14.86,0,0,1,.77,2.7,13.8,13.8,0,0,0-.36,1.81c.06.39.28,1.16-.07,1.21s-.74-.58-.74-.58a.51.51,0,0,1-.27.5.87.87,0,0,1-.88,0s-.21.39-.48.45a1.13,1.13,0,0,1-.88-.12,1,1,0,0,1-.66.21.85.85,0,0,1-.74-.46s-.66.14-.86-.17a3.19,3.19,0,0,1-.23-.92,10.72,10.72,0,0,1,.83-4.61,4.06,4.06,0,0,0-.21-3.58Z" transform="translate(0 -0.03)"/><path class="cls-12" d="M72.28,176s.06-2.26-.54-2.74-.66.34-.66.34.08-.81-.57-.92-.68.85-.68.85a.62.62,0,0,0-.72-.5h-.06c-.69.13-.52.92-.52.92s-.66-.78-1.08,0a3.38,3.38,0,0,0,0,2.75s.21.34.86.17a.89.89,0,0,0,1.4.25s1,.55,1.36-.33a.84.84,0,0,0,1.12-.35A.89.89,0,0,0,72.28,176Z" transform="translate(0 -0.03)"/><path class="cls-13" d="M79.11,135.61s-3.87,12.89-5.18,17.64c-.41,1.49-1.4,15.73-1.57,16.3s-5.08,1.36-5.08,1.36.59-17.81.65-18.78,5.41-20.87,7-21.58c1.17-.53,1.79-.09,3.26,1C80.21,133.09,79.11,135.61,79.11,135.61Z" transform="translate(0 -0.03)"/><path class="cls-14" d="M125.85,111.74a6.57,6.57,0,0,0-2.84-4.06c-1.76-1-4.11-1.1-7-.17a24.7,24.7,0,0,1-7.36,1.43c-4.39,0-7.33-2.18-12.26-6.26a11.89,11.89,0,0,0-10.52-2.58,13.77,13.77,0,0,0-9.28,8.16l-1.15-.5a15,15,0,0,1,10.14-8.92,12.94,12.94,0,0,1,6,0,13.65,13.65,0,0,1,5.67,2.85c7.12,5.89,9.57,7.47,18.44,4.6,3.24-1.05,5.94-1,8,.3a7.9,7.9,0,0,1,3.44,5Z" transform="translate(0 -0.03)"/><rect class="cls-15" x="116.18" y="114.58" width="10.58" height="0.79" transform="translate(-43.13 85.31) rotate(-33.22)"/><path class="cls-16" d="M127,115.09a2.22,2.22,0,0,1-.23.7s-.29.35-.48.61l-.14.2a4.26,4.26,0,0,1-.73,1.14c-.42.43-2.06,1.79-2.06,1.79l-1.41-1.2-1.46-.65a27.77,27.77,0,0,1,1.17-4l.1-.12a4.83,4.83,0,0,1,.92-.63c.07-.06.82-.6,1.09-.53a.87.87,0,0,1,.67.56,2.21,2.21,0,0,1,1,.64,1.35,1.35,0,0,1,.87.81S127,114.67,127,115.09Z" transform="translate(0 -0.03)"/><path class="cls-17" d="M76,223.6s-.35,2.45-.4,2.82-3.92-.22-3.92-.22l-.31-2.91S75.48,223.26,76,223.6Z" transform="translate(0 -0.03)"/><path class="cls-18" d="M75.61,226.11A10.38,10.38,0,0,0,78,228.22c1.19.65,3,.9,3.76,1.57.5.48,1.84,2.54-3.09,2.5s-7.31.3-7.84-.5.76-5.85.76-5.85A10.51,10.51,0,0,0,75.61,226.11Z" transform="translate(0 -0.03)"/><path class="cls-17" d="M103.79,223.6s-.35,2.45-.4,2.82-3.92-.22-3.92-.22l-.31-2.91S103.26,223.26,103.79,223.6Z" transform="translate(0 -0.03)"/><path class="cls-18" d="M103.39,226.11a10.38,10.38,0,0,0,2.42,2.11c1.19.65,5.56,1.18,6.26,1.84.51.48,1.35,2.41-5.59,2.23-4.93-.13-7.31.3-7.84-.5s.76-5.85.76-5.85A9.42,9.42,0,0,0,103.39,226.11Z" transform="translate(0 -0.03)"/><path class="cls-18" d="M79.18,160.74s-3.64,5.78-3.37,11-1.32,10.94-1.87,16.41c-.61,6.09-3.11,20.51-3.2,23.77s.39,13.67.39,13.67l5,.11s4.19-25.21,5.28-27.79,6.48-20.91,6.66-23S79.18,160.74,79.18,160.74Z" transform="translate(0 -0.03)"/><path class="cls-18" d="M98.36,161.52s2.74,14.34,3.1,17.54.61,15.5.79,17.5,1.69,26.13,2.17,29.16H98s-4.9-17.58-4.9-25.9-3.79-18.09-6.24-23.58-8-5.61-9.54-15.8C77.35,160.44,96.32,158.29,98.36,161.52Z" transform="translate(0 -0.03)"/><path class="cls-11" d="M85.26,112.07s4.89-1.82,7.14,1.9,2,11.17-.43,12.09-6.16.44-7.42-1.89a18.46,18.46,0,0,1-2.35-8A4.9,4.9,0,0,1,85.26,112.07Z" transform="translate(0 -0.03)"/><path class="cls-11" d="M91.44,126.23a4.11,4.11,0,0,0,.14,2c.33.65-6.34.67-6.34.67a43.11,43.11,0,0,0-1.57-6.53C82.65,119.35,91.44,126.23,91.44,126.23Z" transform="translate(0 -0.03)"/><path class="cls-19" d="M83.67,122.34s.46.76,2.34.47,4.18-2.8,5-3.07.79-.74.79-.74l.49.72.84,0s-.76-2.24.38-3.15-1.19-7.24-7.21-5.13c0,0-4.63,1.28-4.47,3.91S82.64,121,83.67,122.34Z" transform="translate(0 -0.03)"/><path class="cls-20" d="M92,128.12s0-1.24-.58-1.36-6.22-.66-6.91-.39v1.47S85.79,128.64,92,128.12Z" transform="translate(0 -0.03)"/><path class="cls-11" d="M91.64,118c-.11-.44-1.23-1.7-1.66-.35s.65,3.17,1.25,3S91.91,119.16,91.64,118Z" transform="translate(0 -0.03)"/><path class="cls-13" d="M114.41,142.84Z" transform="translate(0 -0.03)"/><path class="cls-13" d="M101.32,130c-3.87-.51-9.35-1.88-9.35-1.88l-7.49-.3a72.32,72.32,0,0,0-9.59,2.73c-.25.12-.25,6.14-1,7.72L76.14,143s1.29,9.39,1.56,13.56c.13,1.92-2.67,18-2.67,18A51.79,51.79,0,0,0,83.14,176c5.11.57,17.89-.2,18-.81s-2.47-22.49-2.59-23.62c-.17-1.74.6-11,.6-11,1.19-.92,11.55-5.73,14.38-8.24.76-.67,4-3.78,4.86-4.85a88.72,88.72,0,0,0,6.17-7.77c.37-.4-3.49-2.5-3.84-2.62s-4.65,5.53-6.33,7.35a45.31,45.31,0,0,1-3.85,3.06S103.79,130.14,101.32,130Z" transform="translate(0 -0.03)"/><path class="cls-19" d="M83.86,112.51s-6.23.49-.19,9.83Z" transform="translate(0 -0.03)"/><polygon class="cls-15" points="126.11 112.39 126.61 111.61 125.67 111.73 126.11 112.39"/><path class="cls-21" d="M285.46,181.23c0,41.53-1.18,49.65-11.6,59-4.09,3.64-11.6,11.21-33.27,15A162.68,162.68,0,0,1,217,257.39a80.17,80.17,0,0,1-10.51-.39,55,55,0,0,1-7.43-1.3c-23.82-6-25.59-26.37-15.18-43.54a99,99,0,0,1,9.22-12.62c5.1-6,10.57-11.36,15.52-16.35a110.34,110.34,0,0,0,11.69-13.13,33.37,33.37,0,0,0,3.15-5.35c.19-.43.38-.84.58-1.26.64-1.35,1.3-2.64,2-3.88,1.25-2.34,2.53-4.46,3.76-6.37,1-1.52,1.93-2.9,2.81-4.13a69.39,69.39,0,0,1,5.3-6.56,48.9,48.9,0,0,1,17-4C268.51,138,285.48,144.75,285.46,181.23Z" transform="translate(0 -0.03)"/><path class="cls-22" d="M230.06,243.74a26,26,0,0,0,.79,4c.46,1.22,2.91,4.06,1.88,6.78-1.13,3-6,.11-8-.79s-1.55-2.54-1.76-4.54-1.19-2.06-.83-3.46,2.55-4.11,2.55-4.11Z" transform="translate(0 -0.03)"/><path class="cls-11" d="M225.59,240.19s-1.25,1.76-1.22,1.8,5.39,3.31,5.76,2.25a11.29,11.29,0,0,0,.42-2Z" transform="translate(0 -0.03)"/><path class="cls-22" d="M207.46,245.71a20.31,20.31,0,0,0-3.1,3.63c-1.46,2.2-5.35,2.32-5.52,5.32s5.29,3.09,8.15,2.11,3.3-3.9,5-4.64,2.63-1.32,2.5-2.75a17.6,17.6,0,0,0-1.09-3.76,12.55,12.55,0,0,1-1.71.42A14.33,14.33,0,0,1,207.46,245.71Z" transform="translate(0 -0.03)"/><path class="cls-22" d="M227.09,164.41s-1.09,6.53-2,10.85h0a25.35,25.35,0,0,1-.88,3.56,50.15,50.15,0,0,1-4.84,5.36c-4.42,4.56-10.27,10.29-10.27,10.29l-2.31-4.34s5.2-6.08,8.72-10.15c1.63-1.88,2.9-3.32,3.13-3.53.74-.66,1.59-7.15,2.79-12.49a21.48,21.48,0,0,1,3.61-8.3Z" transform="translate(0 -0.03)"/><path class="cls-11" d="M219.39,184.18c-4.42,4.56-10.27,10.29-10.27,10.29l-2.33-4.34s5.2-6.08,8.72-10.15A7.42,7.42,0,0,1,219.39,184.18Z" transform="translate(0 -0.03)"/><path class="cls-11" d="M207.72,243.71l-.26,2a9.76,9.76,0,0,0,6-.09l.06-1.77Z" transform="translate(0 -0.03)"/><path class="cls-6" d="M248,193.59c.16.58-30.09,0-30.09,0s8.37-6.09,8.91-7.72-2.13-11.38-2.48-14.56c-.28-2.54-1-13.91.7-15.65s8.06-3.72,8.06-3.72l9.19.34a14.81,14.81,0,0,1,2.6.82c1.09.51,7.29,2.72,8.3,5.81S247,172,247,172v1.18h0c0,1-.07,2.46-.11,4.08,0,2.09-.09,4.39-.09,6.07A59.11,59.11,0,0,0,248,193.59Z" transform="translate(0 -0.03)"/><path class="cls-23" d="M248,193.59s4.11,6,4.17,10.17-7.3,17.94-8.42,19.92c-3.34,5.94-12.53,18.76-12.53,18.76s-1.58,0-6.52-2c0,0,6.11-16.93,6.88-18.69,3.29-7.45,5.12-12.74,4-14s-4.12-2.56-5-3.31-16.05,2.86-17.64,3.28c-4.12,1.06-2.24,8.23-1.33,11.45,1.52,5.37,2.85,24.79,2.85,24.79s-2.93,1.25-7.84.19c0,0-9.66-35.05-10-38.54S196.2,196.37,220,192Z" transform="translate(0 -0.03)"/><path class="cls-11" d="M235.66,132s-8-1.8-6.16,8.24,3.74,10.83,8.56,8.75,4.38-8.51,4.62-11.66S238.2,132.08,235.66,132Z" transform="translate(0 -0.03)"/><path class="cls-11" d="M233.55,154.52s3.53,3.75,9.12.34c0,0-1.25-8.12-.59-12.07s-7.29,6.12-7.29,6.12a3.41,3.41,0,0,1,.19,1,10.79,10.79,0,0,1-.09,1.61C234.73,152.84,234.32,154.2,233.55,154.52Z" transform="translate(0 -0.03)"/><path class="cls-24" d="M242.3,142.45s-.21-3.17-1.37-3.26-1.33,1.17-1.33,1.17l-1.17.22s.37-2.77-.78-3.26-7.48,1.53-8.41.72-.49-6.44,1.19-7.21,6.3-2.5,9.69-.2c0,0,2.64-.3,3,1.83S243,140.84,242.3,142.45Z" transform="translate(0 -0.03)"/><path class="cls-25" d="M234.89,151.49c5.77-1.77,6.2-5.24,6.21-5.3-1.9,3.26-6.12,3.69-6.12,3.69A10.79,10.79,0,0,1,234.89,151.49Z" transform="translate(0 -0.03)"/><path class="cls-11" d="M245,153.15s-4.22,8.4-11,7.86-1.16-9-.85-9.07S240.13,150.2,245,153.15Z" transform="translate(0 -0.03)"/><path class="cls-26" d="M214.49,193.17s20.89,2.57,33.55.42l-24.19-3S223.71,191.19,214.49,193.17Z" transform="translate(0 -0.03)"/><path class="cls-11" d="M230.12,189.62l-1.56.79s.35,2.47,1.21,3.22l1.74-.45S231.15,190.47,230.12,189.62Z" transform="translate(0 -0.03)"/><path class="cls-22" d="M254.29,184.56c-.32.36-4.42,2-9.06,3.8h0c-6.34,2.48-13.44,4.75-13.44,4.75l-1.62-3.49s7.48-4.07,12.54-6.92c2.39-1.35,4.24-2.43,4.5-2.68.81-.77,1-2,.42-4.18s-2-12.12-2.13-13.29.39-4.26,3.3-4.41a8.77,8.77,0,0,1,4.38.66s.73.31,1.27,7.36S255,183.7,254.29,184.56Z" transform="translate(0 -0.03)"/><path class="cls-27" d="M247,173.16h0c0,1-.07,2.46-.11,4.08a20.38,20.38,0,0,1-1.16-12.59C245.42,166.53,247,173.07,247,173.16Z" transform="translate(0 -0.03)"/><path class="cls-27" d="M225.11,175.26h0a25.35,25.35,0,0,1-.88,3.56,36.75,36.75,0,0,1-.1-10.68A58.87,58.87,0,0,0,225.11,175.26Z" transform="translate(0 -0.03)"/><path class="cls-11" d="M245.23,188.36h0c-6.34,2.44-13.72,4.82-13.72,4.82l-1.39-3.56s7.48-4.07,12.54-6.92C242.66,182.7,244.5,183.59,245.23,188.36Z" transform="translate(0 -0.03)"/><polygon class="cls-28" points="229.68 193.35 199.99 192.93 214.97 200.53 229.68 193.35"/><polygon class="cls-29" points="214.97 200.53 229.68 194.84 229.68 193.35 213.81 199.09 214.97 200.53"/><path class="cls-11" d="M228.9,190.46s-1.86-.29-3.14-.59c-1-.23-3.46.09-4.09.73s-2.62,5.07-3,5.34.19.9.86.58c0,0,.6,1.94,2.11,1.22s2.52-2.32,3.31-2.6,5.37-1.68,5.37-1.68S230.08,190,228.9,190.46Z" transform="translate(0 -0.03)"/><path class="cls-11" d="M222.12,190.31a12.17,12.17,0,0,0-1.5.83c-.31.25-1.57,1.2-1.87,1.42s.46.85,2.71-.12S222.12,190.31,222.12,190.31Z" transform="translate(0 -0.03)"/><polygon class="cls-30" points="214.97 200.53 206.15 176.43 177.68 176.88 186.09 199.1 214.97 200.53"/><path class="cls-29" d="M197,187.12c.87,1.73.61,3.63-.58,4.22s-2.86-.33-3.73-2.06-.61-3.63.58-4.23S196.16,185.38,197,187.12Z" transform="translate(0 -0.03)"/><path class="cls-11" d="M239.62,139a1,1,0,1,1,2,.12c.14,1.33-.79,3.66-1.46,3.43S239.48,140.24,239.62,139Z" transform="translate(0 -0.03)"/><path class="cls-31" d="M138.61,70.45a13.24,13.24,0,1,0-24.94,8.92h0c.1.28.21.56.33.83a12.88,12.88,0,0,0,2,3.29,13.24,13.24,0,0,0,22.56-13Zm-9.13,13.81a9.94,9.94,0,0,1-10.91-2.91A9.54,9.54,0,0,1,117,78.88c-.09-.21-.17-.41-.25-.62a9.91,9.91,0,0,1,6-12.68h0a9.92,9.92,0,0,1,6.68,18.69Z" transform="translate(0 -0.03)"/><path class="cls-32" d="M116.66,72l-3.16-1a13.25,13.25,0,0,1,12.29-9.27l.1,3.31a10,10,0,0,0-9.18,7Z" transform="translate(0 -0.03)"/><path class="cls-33" d="M117,78.84l-3,1.32c-.12-.27-.23-.55-.33-.83a13.2,13.2,0,0,1-.17-8.4l3.16,1a10,10,0,0,0,.13,6.31A2,2,0,0,0,117,78.84Z" transform="translate(0 -0.03)"/><path class="cls-34" d="M116.05,83.49a12.88,12.88,0,0,1-2-3.29l3-1.32a9.54,9.54,0,0,0,1.53,2.47Z" transform="translate(0 -0.03)"/><rect class="cls-31" x="118.89" y="147.25" width="7.14" height="23.4"/><rect class="cls-31" x="108.28" y="153.82" width="7.14" height="16.84"/><rect class="cls-31" x="129.18" y="136.41" width="7.14" height="34.25"/><polygon class="cls-34" points="78.42 85.3 78.11 85.06 83.69 77.81 90.58 78.19 95.78 69.92 101.38 69.33 104.73 62.69 105.06 62.85 101.61 69.69 96 70.27 90.78 78.56 83.88 78.19 78.42 85.3"/><path class="cls-35" d="M91.6,78a1,1,0,0,1-.56,1.3h0A1,1,0,1,1,91.6,78Z" transform="translate(0 -0.03)"/><path class="cls-34" d="M91.1,79.51a1.17,1.17,0,0,1-1.52-.65v0A1.19,1.19,0,1,1,91.78,78a1.18,1.18,0,0,1-.66,1.54Zm-.72-1.86a.81.81,0,0,0-.47,1v0a.81.81,0,1,0,.46-1Z" transform="translate(0 -0.03)"/><path class="cls-35" d="M96.79,69.84a1,1,0,0,1-1.87.72,1,1,0,0,1,1.87-.73Z" transform="translate(0 -0.03)"/><path class="cls-34" d="M96.32,71.29a1.19,1.19,0,0,1-1.54-.67,1.18,1.18,0,0,1,.66-1.54,1.19,1.19,0,0,1,1.55.67h0A1.19,1.19,0,0,1,96.32,71.29Zm-.73-1.87a.83.83,0,0,0-.54,1A.82.82,0,0,0,96.62,70l0-.08A.81.81,0,0,0,95.59,69.42Z" transform="translate(0 -0.03)"/><path class="cls-35" d="M102.36,69.15a1,1,0,0,1-1.87.72,1,1,0,0,1,1.87-.73Z" transform="translate(0 -0.03)"/><path class="cls-34" d="M101.86,70.62a1.19,1.19,0,0,1-1.54-.67,1.18,1.18,0,0,1,.66-1.54,1.19,1.19,0,0,1,1.55.67h0A1.19,1.19,0,0,1,101.86,70.62Zm-.73-1.86a.81.81,0,1,0,1,.52.14.14,0,0,0,0-.06.81.81,0,0,0-1-.46Z" transform="translate(0 -0.03)"/><path class="cls-35" d="M84.71,77.76a1,1,0,1,1,0-.08Z" transform="translate(0 -0.03)"/><path class="cls-34" d="M84.21,79.23a1.17,1.17,0,1,1,.19-.07Zm-.72-1.87a.82.82,0,1,0,.43,1.58.52.52,0,0,0,.16-.06.82.82,0,0,0-.59-1.52Z" transform="translate(0 -0.03)"/><path class="cls-22" d="M212.79,81.18s-1.07-59.54-43-67.91c0,0,29.06-1.07,41.53,20S212.79,81.18,212.79,81.18Z" transform="translate(0 -0.03)"/><polygon class="cls-36" points="232.72 120.78 262.15 104.33 252.04 103.66 232.72 120.78"/><polygon class="cls-23" points="232.72 120.78 241.78 106.22 249.38 106.02 232.72 120.78"/><polygon class="cls-37" points="255.38 108.11 255.97 111.81 232.72 120.78 255.38 108.11"/><path class="cls-23" d="M22.56,116.55H22c.06-1.07.13-2.15.2-3.21l.6,0C22.68,114.41,22.61,115.48,22.56,116.55Zm.46-6.39h-.59c.1-1.07.21-2.14.33-3.2l.59.07C23.23,108,23.12,109.1,23,110.16Zm.77-6.32-.59-.08c.14-1.06.3-2.13.47-3.17l.59.09A27.89,27.89,0,0,0,23.79,103.84Zm241-5-.24-.54a25.2,25.2,0,0,0,2.79-1.53l.31.5A25.57,25.57,0,0,1,264.79,98.84Zm-240-1.35-.58-.11c.19-1.06.4-2.12.62-3.16l.58.13C25.16,95.38,25,96.44,24.79,97.49Zm245.59-2.11-.36-.47c.85-.66,1.66-1.36,2.41-2.07l.41.42a29.63,29.63,0,0,1-2.49,2.12ZM26.1,91.22l-.58-.13c.25-1,.51-2.1.78-3.12l.58.15c-.3,1-.56,2.07-.81,3.1ZM275,90.84l-.47-.37a19.44,19.44,0,0,0,1.79-2.61l.51.3A21.13,21.13,0,0,1,275,90.84Zm3.2-5.63-.56-.2a16.29,16.29,0,0,0,.76-3l.59.08a17.09,17.09,0,0,1-.79,3.15ZM27.7,85l-.57-.17c.3-1,.62-2.06.94-3.07l.57.18C28.32,83,28,84,27.7,85Zm2-6.09-.56-.2c.36-1,.73-2,1.12-3l.55.21c-.42,1-.79,2-1.15,3Zm248.89-.1a18.31,18.31,0,0,0-.44-3.12l.58-.13a17.58,17.58,0,0,1,.45,3.22ZM32,73l-.55-.23c.41-1,.85-2,1.29-2.94l.54.24c-.5,1-.91,2-1.32,3Zm245.19-.27a25.86,25.86,0,0,0-1.41-2.84l.52-.28a27,27,0,0,1,1.38,2.93ZM34.67,67.14l-.54-.27c.48-1,1-1.92,1.48-2.85l.52.28c-.54,1-1,1.91-1.5,2.87Zm239.55,0-.1-.14a17.91,17.91,0,0,0-1.86-2.31l.44-.41a18.43,18.43,0,0,1,1.92,2.39l.09.14Zm-4.29-4.55a23,23,0,0,0-2.63-1.74l.29-.52a24.2,24.2,0,0,1,2.7,1.78Zm-232.25-1-.51-.29c.54-.93,1.09-1.86,1.66-2.76l.5.31c-.6.89-1.15,1.81-1.69,2.73Zm226.78-2.1c-.93-.4-1.93-.78-3-1.13l.19-.56c1.06.35,2.08.73,3,1.14Zm-6-2c-1-.25-2-.49-3.11-.72l.12-.58c1.1.23,2.15.47,3.14.73ZM41.1,56.15l-.49-.33c.6-.89,1.22-1.78,1.84-2.64l.48.34A28.31,28.31,0,0,0,41,56.11Zm211.11,0c-1-.17-2.06-.33-3.17-.48l.08-.59c1.12.15,2.19.32,3.19.48Zm-6.35-.88c-1-.12-2-.23-3.19-.35l.06-.59c1.15.12,2.2.23,3.2.35Zm-6.38-.66-3.2-.29.06-.59,3.19.29Zm-6.4-.57-3.19-.3.05-.59,3.2.3Zm-6.39-.61c-1.13-.11-2.18-.22-3.2-.34l.07-.59c1,.12,2.06.23,3.19.34Zm-6.38-.73c-1.09-.14-2.17-.28-3.19-.43l.09-.59c1,.15,2.08.3,3.17.44ZM214,51.76c-1.08-.18-2.14-.38-3.17-.58l.12-.58c1,.2,2.08.39,3.15.58ZM44.79,50.92l-.47-.36c.66-.85,1.34-1.69,2-2.51l.46.38Zm162.79-.46c-1.06-.24-2.11-.5-3.13-.77l.16-.57c1,.27,2,.52,3.11.76Zm-6.26-1.62c-1-.32-2.07-.66-3.06-1l.2-.56c1,.35,2,.68,3,1Zm-6.07-2.14c-1-.41-2-.84-2.95-1.28l.25-.54c.94.44,1.93.86,2.92,1.27ZM48.85,46l-.44-.39c.71-.8,1.45-1.59,2.19-2.36l.43.41c-.74.74-1.47,1.53-2.18,2.32Zm140.57-2c-.95-.51-1.9-1-2.8-1.59l.31-.51c.89.54,1.82,1.07,2.77,1.57ZM53.28,41.46,52.87,41c.76-.75,1.56-1.49,2.35-2.2l.4.44a29.25,29.25,0,0,0-2.34,2.12Zm130.64-.78c-.89-.61-1.76-1.26-2.59-1.92l.37-.46c.82.65,1.68,1.29,2.56,1.89ZM58,37.18l-.39-.46c.82-.68,1.66-1.36,2.5-2l.37.47A31.3,31.3,0,0,0,58,37.12Zm120.84-.5c-.79-.7-1.6-1.4-2.43-2.08l.38-.46c.83.68,1.65,1.39,2.44,2.1ZM63.07,33.25l-.35-.48c.86-.63,1.75-1.25,2.64-1.84l.33.49c-.9.53-1.77,1.15-2.62,1.77Zm110.86-.62c-.85-.63-1.72-1.26-2.6-1.86l.34-.49c.88.61,1.76,1.24,2.62,1.88Zm-105.56-3-.31-.5c.9-.56,1.83-1.12,2.76-1.65l.3.52c-.92.46-1.85,1-2.75,1.57ZM168.66,29c-.89-.56-1.81-1.12-2.74-1.65l.3-.51c.93.53,1.86,1.09,2.76,1.65ZM73.92,26.5,73.64,26c.94-.5,1.91-1,2.87-1.45l.26.53c-1,.4-1.91.89-2.85,1.38Zm89.2-.66c-.93-.49-1.9-1-2.86-1.43l.26-.53c1,.46,1.94.94,2.88,1.43ZM79.67,23.72l-.24-.55c1-.43,2-.85,3-1.24l.22.55c-1,.36-2,.75-3,1.18Zm77.68-.63-2.95-1.21.21-.55c1,.39,2,.8,3,1.22ZM85.59,21.34l-.2-.56c1-.37,2-.72,3-1l.18.57a22.15,22.15,0,0,0-3,.93Zm65.81-.56c-1-.35-2-.68-3-1l.18-.57c1,.32,2,.66,3,1ZM91.65,19.36l-.16-.57c1-.3,2.06-.58,3.1-.85l.14.58c-1,.2-2.06.48-3.08.78Zm53.64-.52c-1-.28-2.06-.55-3.1-.79l.14-.58c1,.25,2.09.51,3.12.79ZM97.84,17.73l-.13-.58c1-.23,2.1-.44,3.15-.64l.11.59c-1,.18-2.1.39-3.13.62Zm41.23-.37c-1-.21-2.09-.4-3.14-.58l.1-.59c1,.18,2.12.38,3.16.59Zm-35-.8L104,16c1.06-.16,2.13-.3,3.19-.43l.07.59c-1,.11-2.08.26-3.13.42Zm28.66-.26c-1-.14-2.12-.27-3.18-.38l.06-.59c1.07.11,2.14.24,3.2.38Zm-22.32-.51V15.2c1.06-.09,2.14-.17,3.2-.23v.59c-1,0-2.1.13-3.16.22Zm16-.14c-1.06-.08-2.13-.13-3.19-.17v-.6c1.07,0,2.15.1,3.21.18Zm-9.58-.22v-.59H120v.59c-1.08,0-2.15,0-3.25,0Z" transform="translate(0 -0.03)"/></g></svg>