<svg id="Layer_1" data-name="Layer 1" xmlns="http://www.w3.org/2000/svg" xmlns:xlink="http://www.w3.org/1999/xlink" viewBox="0 0 414.92 325.09"><defs><style>.cls-1{fill:url(#linear-gradient);}.cls-18,.cls-2,.cls-22,.cls-23,.cls-4,.cls-5,.cls-7{opacity:0.2;}.cls-10,.cls-11,.cls-12,.cls-13,.cls-18,.cls-19,.cls-2,.cls-20,.cls-21,.cls-22,.cls-23,.cls-26,.cls-27,.cls-28,.cls-30,.cls-33,.cls-4,.cls-43,.cls-50,.cls-51,.cls-53,.cls-55,.cls-57,.cls-58,.cls-59,.cls-60,.cls-61,.cls-63,.cls-64,.cls-7,.cls-8,.cls-9{isolation:isolate;}.cls-2{fill:url(#linear-gradient-3);}.cls-3{fill:url(#linear-gradient-4);}.cls-4{fill:url(#linear-gradient-6);}.cls-10,.cls-33,.cls-43,.cls-50,.cls-53,.cls-55,.cls-57,.cls-58,.cls-6,.cls-7,.cls-8,.cls-9{fill:#f84525;}.cls-8{opacity:0.26;}.cls-9{opacity:0.46;}.cls-10{opacity:0.15;}.cls-11,.cls-12,.cls-13,.cls-65,.cls-66{fill:none;stroke-miterlimit:10;}.cls-11,.cls-12,.cls-13{stroke:#f84525;}.cls-11{stroke-width:2px;}.cls-11,.cls-13{opacity:0.1;}.cls-12{stroke-width:0.5px;}.cls-12,.cls-21,.cls-26,.cls-28,.cls-30,.cls-33,.cls-44{opacity:0.5;}.cls-13{stroke-width:3.13px;}.cls-14{fill:#f97362;}.cls-15{fill:#fc9a90;}.cls-16{fill:#fc6454;}.cls-17{fill:#f96753;}.cls-18,.cls-19,.cls-20,.cls-25,.cls-26,.cls-27{fill:#fff;}.cls-19{opacity:0.39;}.cls-20{opacity:0.8;}.cls-21{fill:#f96050;}.cls-22{fill:#f77969;}.cls-23{fill:#9cd7ff;}.cls-24,.cls-27,.cls-43{opacity:0.3;}.cls-28{fill:#f77c72;}.cls-29{fill:#f97c6b;}.cls-30{fill:#f9a89d;}.cls-31{fill:url(#linear-gradient-7);}.cls-32{fill:#f98070;}.cls-34{fill:#ffe1bd;}.cls-35{fill:#fccb95;}.cls-36{fill:#594a5f;}.cls-37,.cls-59{fill:#f9b253;}.cls-38{fill:#f95c46;}.cls-39{fill:#f79992;}.cls-40{fill:#f95741;}.cls-41{fill:#f29127;}.cls-42{fill:#00215b;}.cls-45{fill:#3a3a3a;}.cls-46{fill:#4c4051;}.cls-47{fill:#f4d4b3;}.cls-48{fill:#ffd1ab;}.cls-49{fill:#2c1e56;}.cls-50{opacity:0.22;}.cls-51{fill:#e54c38;opacity:0.4;}.cls-52{fill:#f99d91;}.cls-53{opacity:0.75;}.cls-54{fill:#f7c88f;}.cls-55{opacity:0.42;}.cls-56{fill:#ebfaff;}.cls-57{opacity:0.28;}.cls-58,.cls-60{opacity:0.47;}.cls-59{opacity:0.49;}.cls-60{fill:url(#linear-gradient-8);}.cls-61{opacity:0.58;fill:url(#linear-gradient-9);}.cls-62{fill:#f49625;}.cls-63{opacity:0.51;fill:url(#linear-gradient-10);}.cls-64{opacity:0.82;fill:url(#linear-gradient-11);}.cls-65,.cls-66{stroke:#f96753;stroke-width:0.53px;}.cls-66{stroke-linecap:round;}.cls-67{opacity:0.19;}</style><linearGradient id="linear-gradient" x1="213.15" y1="17.3" x2="262.79" y2="17.3" gradientTransform="matrix(1, 0, 0, -1, -83.67, 326.83)" gradientUnits="userSpaceOnUse"><stop offset="0" stop-color="#f9b253"/><stop offset="1" stop-color="#f9b253"/></linearGradient><linearGradient id="linear-gradient-3" x1="231.25" y1="5.21" x2="258.52" y2="5.21" gradientTransform="matrix(1, 0, 0, -1, -83.67, 326.83)" gradientUnits="userSpaceOnUse"><stop offset="0" stop-color="#f9b253"/><stop offset="1" stop-color="#f49e37"/></linearGradient><linearGradient id="linear-gradient-4" x1="293.42" y1="17.19" x2="344.64" y2="17.19" xlink:href="#linear-gradient"/><linearGradient id="linear-gradient-6" x1="297.62" y1="4.27" x2="324.89" y2="4.27" xlink:href="#linear-gradient-3"/><linearGradient id="linear-gradient-7" x1="142.33" y1="112.38" x2="413.81" y2="112.38" gradientTransform="matrix(1, 0, 0, -1, -83.67, 326.83)" gradientUnits="userSpaceOnUse"><stop offset="0" stop-color="#f96753"/><stop offset="1" stop-color="#f96753" stop-opacity="0"/></linearGradient><linearGradient id="linear-gradient-8" x1="281.78" y1="197.59" x2="283.64" y2="197.59" gradientTransform="matrix(1, 0, 0, -1, -83.67, 326.83)" gradientUnits="userSpaceOnUse"><stop offset="0" stop-color="#f7941e"/><stop offset="1" stop-color="#f7941e" stop-opacity="0"/></linearGradient><linearGradient id="linear-gradient-9" x1="397.9" y1="22.08" x2="422.28" y2="22.08" xlink:href="#linear-gradient"/><linearGradient id="linear-gradient-10" x1="427.56" y1="28.99" x2="461.43" y2="28.99" gradientTransform="matrix(1, 0, 0, -1, -83.67, 326.83)" gradientUnits="userSpaceOnUse"><stop offset="0" stop-color="#f96753"/><stop offset="1" stop-color="#f98053" stop-opacity="0"/></linearGradient><linearGradient id="linear-gradient-11" x1="427.56" y1="28.99" x2="461.43" y2="28.99" xlink:href="#linear-gradient"/></defs><title>venanalytics-banner-mobile</title><path class="cls-1" d="M179.12,330.48,175,316.36s6.33-26.85-7-28.06c-12.67-1.15-9.27,23-8.88,25.63-.43-2.71-5-29.55-16-25.47-12.33,4.58,7.47,29.46,7.47,29.46-4.44-5.75-15.89-14.26-19.92-5.26-1.76,3.93,2,7.58,6.82,10.45-3.08-.72-6.24-1.07-7.26.17-2.84,3.48,3,7.52,14.14,7.74,4,.08,6.09-.75,7.07-1.85l.22.07Z" transform="translate(-6.73 -51.83)"/><path class="cls-1" d="M179.12,330.48,175,316.36s6.33-26.85-7-28.06c-12.67-1.15-9.27,23-8.88,25.63-.43-2.71-5-29.55-16-25.47-12.33,4.58,7.47,29.46,7.47,29.46-4.44-5.75-15.89-14.26-19.92-5.26-1.76,3.93,2,7.58,6.82,10.45-3.08-.72-6.24-1.07-7.26.17-2.84,3.48,3,7.52,14.14,7.74,4,.08,6.09-.75,7.07-1.85l.22.07Z" transform="translate(-6.73 -51.83)"/><path class="cls-2" d="M158.62,331.23s-13.87-5.36-10.52-10c2.11-2.92,6.18,2,6.18,2s-5.36-7-.72-9.15c4.81-2.22,7.4,5.87,7.4,5.87s-1.8-7.09,1.87-8.09,4,7.09,4,7.09,4.73-6.38,7.55-1.3c2.56,4.62-5.21,13.81-5.21,13.81" transform="translate(-6.73 -51.83)"/><path class="cls-3" d="M261,325.25c.23-2.55-5.49-2.55-9.89-2.09,5.84-3.31,10.94-7.61,9-11.91-4-9-17.14.92-21.59,6.67,0,0,19.81-24.88,7.48-29.46-11-4.08-15.61,22.76-16,25.47.4-2.59,3.8-26.78-8.87-25.63-13.37,1.18-11.21,42.18-11.21,42.18S260.12,334.16,261,325.25Z" transform="translate(-6.73 -51.83)"/><path class="cls-3" d="M261,325.25c.23-2.55-5.49-2.55-9.89-2.09,5.84-3.31,10.94-7.61,9-11.91-4-9-17.14.92-21.59,6.67,0,0,19.81-24.88,7.48-29.46-11-4.08-15.61,22.76-16,25.47.4-2.59,3.8-26.78-8.87-25.63-13.37,1.18-11.21,42.18-11.21,42.18S260.12,334.16,261,325.25Z" transform="translate(-6.73 -51.83)"/><path class="cls-4" d="M230.18,332.17s13.87-5.36,10.52-10c-2.11-2.91-6.18,2-6.18,2s5.36-7,.72-9.15c-4.81-2.22-7.4,5.86-7.4,5.86s1.79-7.08-1.87-8.08-3.95,7.08-3.95,7.08-4.73-6.37-7.55-1.29c-2.56,4.61,5.21,13.81,5.21,13.81" transform="translate(-6.73 -51.83)"/><g class="cls-5"><path class="cls-6" d="M69.55,220.12a16.16,16.16,0,1,0,3.64,14,16.64,16.64,0,0,0,.35-3.38A16,16,0,0,0,69.55,220.12Zm1,13.44a13.46,13.46,0,0,1-7.15,9.21,13.18,13.18,0,0,1-6,1.42,13.44,13.44,0,1,1,13.43-13.45h0a14,14,0,0,1-.28,2.81Z" transform="translate(-6.73 -51.83)"/></g><path class="cls-7" d="M73.19,234.13a16.23,16.23,0,0,1-8.61,11.1l-1.27-2.46a13.46,13.46,0,0,0,7.15-9.21Z" transform="translate(-6.73 -51.83)"/><path class="cls-8" d="M69.55,220.12l-2.07,1.8a13.44,13.44,0,0,0-19-1.29c-.26.23-.51.46-.75.71l-2-1.93a16.18,16.18,0,0,1,22.87-.21c.3.3.58.6.86.92Z" transform="translate(-6.73 -51.83)"/><g class="cls-5"><path class="cls-6" d="M164.31,82.85a10.75,10.75,0,1,0,2.42,9.32,11.3,11.3,0,0,0,.23-2.25A10.75,10.75,0,0,0,164.31,82.85Zm.63,8.94a9,9,0,0,1-4.76,6.13,8.88,8.88,0,1,1,4.76-6.13Z" transform="translate(-6.73 -51.83)"/></g><path class="cls-7" d="M166.74,92.17A10.79,10.79,0,0,1,161,99.55l-.82-1.63A9,9,0,0,0,165,91.79Z" transform="translate(-6.73 -51.83)"/><path class="cls-8" d="M164.31,82.85l-1.38,1.2a8.92,8.92,0,0,0-12.58-.89c-.19.16-.36.33-.53.5l-1.3-1.28a10.74,10.74,0,0,1,15.19-.17c.21.21.41.42.6.64Z" transform="translate(-6.73 -51.83)"/><path class="cls-9" d="M44.31,272.77,46,271.55a10.16,10.16,0,0,0-3.13-3.13l-1.22,1.64a8.28,8.28,0,0,0-2.28-.95l.3-2a10.35,10.35,0,0,0-2.22-.25,9.73,9.73,0,0,0-2.21.25l.3,2a8.22,8.22,0,0,0-2.29.95L32,268.42a10.16,10.16,0,0,0-3.13,3.13l1.64,1.22a8,8,0,0,0-.94,2.28l-2-.29a10,10,0,0,0,0,4.42l2-.29a8,8,0,0,0,.94,2.28l-1.64,1.22A10.16,10.16,0,0,0,32,285.52l1.22-1.64a8.06,8.06,0,0,0,2.29,1l-.3,2a9.73,9.73,0,0,0,2.21.25,10.35,10.35,0,0,0,2.22-.25l-.3-2a7.88,7.88,0,0,0,2.28-1l1.22,1.64A10.16,10.16,0,0,0,46,282.39l-1.64-1.22a8.28,8.28,0,0,0,.95-2.28l2,.29a10,10,0,0,0,0-4.42l-2,.29A8.28,8.28,0,0,0,44.31,272.77Zm-7,9.58A5.38,5.38,0,1,1,42.69,277a5.38,5.38,0,0,1-5.38,5.38Z" transform="translate(-6.73 -51.83)"/><path class="cls-10" d="M358.45,118.88l2.46-1.83a15.21,15.21,0,0,0-4.69-4.69l-1.83,2.46A11.85,11.85,0,0,0,351,113.4l.45-3a15.18,15.18,0,0,0-6.64,0l.44,3a12.08,12.08,0,0,0-3.42,1.42L340,112.36a15.21,15.21,0,0,0-4.69,4.69l2.46,1.83a12.08,12.08,0,0,0-1.42,3.42l-3-.44a15.18,15.18,0,0,0,0,6.64l3-.45a11.85,11.85,0,0,0,1.42,3.43l-2.42,1.83A15.21,15.21,0,0,0,340,138l1.83-2.46a12.08,12.08,0,0,0,3.42,1.42l-.44,3a15.18,15.18,0,0,0,6.64,0l-.45-3a11.85,11.85,0,0,0,3.43-1.42l1.83,2.46a15.21,15.21,0,0,0,4.69-4.69l-2.5-1.83a11.85,11.85,0,0,0,1.42-3.43l3,.45a15.18,15.18,0,0,0,0-6.64l-3,.44A12.08,12.08,0,0,0,358.45,118.88Zm-10.36,14.36a8.06,8.06,0,1,1,8.06-8.06h0A8.06,8.06,0,0,1,348.09,133.24Z" transform="translate(-6.73 -51.83)"/><path class="cls-11" d="M126.74,70.65a4.17,4.17,0,1,1-4.17-4.17h0a4.16,4.16,0,0,1,4.16,4.16Z" transform="translate(-6.73 -51.83)"/><path class="cls-12" d="M288.08,85.77a4.17,4.17,0,1,1-4.17-4.17h0a4.16,4.16,0,0,1,4.17,4.15Z" transform="translate(-6.73 -51.83)"/><circle class="cls-13" cx="170.8" cy="64.67" r="6.52"/><path class="cls-13" d="M369.8,213.74a6.52,6.52,0,1,1-6.53-6.51h0A6.52,6.52,0,0,1,369.8,213.74Z" transform="translate(-6.73 -51.83)"/><polygon class="cls-14" points="215.29 276.37 160.05 276.37 166.05 252.78 167.41 247.43 170.05 237.07 205.29 237.07 207.93 247.43 209.29 252.78 215.29 276.37"/><path class="cls-15" d="M330.14,136.26V292.65a6.74,6.74,0,0,1-6.74,6.74H65.4a6.74,6.74,0,0,1-6.74-6.74V136.26a6.74,6.74,0,0,1,6.74-6.74h258A6.74,6.74,0,0,1,330.14,136.26Z" transform="translate(-6.73 -51.83)"/><polygon class="cls-16" points="209.29 252.78 166.05 252.78 167.41 247.43 207.93 247.43 209.29 252.78"/><path class="cls-16" d="M243.21,334.72H145.57a4.24,4.24,0,0,1-4.26-4.22v0h0a4.24,4.24,0,0,1,4.24-4.24h97.66a4.24,4.24,0,0,1,4.25,4.23h0a4.24,4.24,0,0,1-4.24,4.24Z" transform="translate(-6.73 -51.83)"/><g class="cls-5"><rect class="cls-17" x="51.42" y="101.83" width="271.99" height="118.67"/></g><path class="cls-16" d="M194.38,291.68h0a6.28,6.28,0,0,1-6.26-6.26h0a6.28,6.28,0,0,1,6.26-6.26h0a6.28,6.28,0,0,1,6.26,6.26h0A6.28,6.28,0,0,1,194.38,291.68Z" transform="translate(-6.73 -51.83)"/><rect class="cls-18" x="145.5" y="105" width="171.84" height="73.38" rx="3.28"/><path class="cls-19" d="M319.46,196.12V224a2.27,2.27,0,0,1-2.26,2.25H158.47a2.27,2.27,0,0,1-2.26-2.25V162.75c14.66,0,22,5.48,26.24,12.68q.42.69.78,1.41c7.24,13.7,5.06,32.48,21,32.48a6.78,6.78,0,0,0,1.68-.21,5.06,5.06,0,0,0,1-.32c10.71-4.51,9-36.52,28.09-36.29a12.84,12.84,0,0,1,9.51,4.1c.23.25.46.5.68.77,8.53,10,8.65,32.32,21.75,36.37,4.72,1.46,8.89-.52,13-3.79.26-.21.53-.42.79-.65,8.71-7.23,17.37-19.59,30.81-16.56l1.18.3A27.94,27.94,0,0,1,319.46,196.12Z" transform="translate(-6.73 -51.83)"/><path class="cls-20" d="M319.47,190.48a10,10,0,0,0-6.78,2.55c-3.24,2.87-5,7.77-6.68,12.56-2.55,7.17-5.18,14.57-12.87,14.57a9.36,9.36,0,0,1-1.28-.06c-5-.49-8.7-4.57-11.95-10.16-2-3.46-3.87-7.51-5.75-11.66-5.32-11.67-10.83-23.74-21-24h-.34a11.08,11.08,0,0,0-7.7,3.11c-4.29,3.91-7,11-9.69,17.86-4,10.21-8,20.77-17.24,21-6.62.14-9.63-2.36-12.33-7.1-1-1.84-2-4-3.18-6.51a120.26,120.26,0,0,0-9-16.83,23.52,23.52,0,0,0-10.5-8.93c-10.62-4.63-23.12-1.24-27,0v-1c4.18-1.32,15.86-4.31,26.24-.39a24.48,24.48,0,0,1,12.11,9.8,119.87,119.87,0,0,1,9.06,17c1.18,2.58,2.19,4.79,3.25,6.61,2.54,4.39,5.33,6.56,11.33,6.42,8.54-.2,12.32-10,16.33-20.34,2.72-7,5.49-14.21,9.94-18.27a12,12,0,0,1,8.74-3.33C264,173.62,269.59,186,275,197.94c1.86,4.06,3.66,8,5.63,11.42,3.12,5.42,6.62,9.35,11.26,9.81,7.92.78,10.44-6.32,13.11-13.85,1.66-4.69,3.36-9.47,6.44-12.52a10.94,10.94,0,0,1,7.94-3.25Z" transform="translate(-6.73 -51.83)"/><rect class="cls-21" x="226.48" y="181.48" width="90.86" height="16.08" rx="2.79"/><rect class="cls-22" x="226.48" y="200.91" width="90.86" height="16.08" rx="2.79"/><rect class="cls-23" x="58.39" y="105" width="84.33" height="35.51" rx="3.28"/><g class="cls-24"><rect class="cls-25" x="125.84" y="113.91" width="5.83" height="23.58" rx="0.83"/><rect class="cls-25" x="133.85" y="108.39" width="5.83" height="29.1" rx="0.92"/><rect class="cls-25" x="61.73" y="108.39" width="5.83" height="29.1" rx="0.92"/><rect class="cls-25" x="69.74" y="115.29" width="5.83" height="22.21" rx="0.8"/><rect class="cls-25" x="77.76" y="108.39" width="5.83" height="29.1" rx="0.92"/><rect class="cls-25" x="85.77" y="121.43" width="5.83" height="16.07" rx="0.68"/><rect class="cls-25" x="93.78" y="108.39" width="5.83" height="29.1" rx="0.92"/><rect class="cls-25" x="101.8" y="113.91" width="5.83" height="23.58" rx="0.83"/><rect class="cls-25" x="109.81" y="108.39" width="5.83" height="29.1" rx="0.92"/><rect class="cls-25" x="117.83" y="115.29" width="5.83" height="22.21" rx="0.8"/></g><rect class="cls-18" x="58.39" y="143.24" width="84.33" height="35.51" rx="3.28"/><rect class="cls-18" x="58.39" y="181.48" width="84.33" height="35.51" rx="3.28"/><path class="cls-26" d="M145.21,199.68a1.6,1.6,0,0,0-1.59,1.58,1.57,1.57,0,0,0,.22.79L131,216.61a1.57,1.57,0,0,0-1.24,0L115.83,203a1.44,1.44,0,0,0,.15-.65,1.59,1.59,0,0,0-3.17,0,1.56,1.56,0,0,0,.15.67L95.12,222.25a1.56,1.56,0,0,0-.91-.29,1.45,1.45,0,0,0-.76.21l-9.76-12.69a1.6,1.6,0,0,0,.3-.92,1.59,1.59,0,0,0-3.17-.25,1,1,0,0,0,0,.25,1.49,1.49,0,0,0,.21.77L70.09,223.48a1.46,1.46,0,0,0-.55-.11,1.59,1.59,0,1,0,1.58,1.6h0a1.51,1.51,0,0,0-.25-.85L81.77,210a1.69,1.69,0,0,0,.63.13,1.5,1.5,0,0,0,.47-.08l9.89,12.88a1.51,1.51,0,0,0-.13.63,1.59,1.59,0,0,0,3.17,0,1.5,1.5,0,0,0-.08-.47l17.94-19.36a1.72,1.72,0,0,0,.73.19,1.54,1.54,0,0,0,.76-.2L129,217.28a1.59,1.59,0,1,0,2.74-.05l12.87-14.54a1.68,1.68,0,0,0,.63.12,1.58,1.58,0,1,0,0-3.16Z" transform="translate(-6.73 -51.83)"/><rect class="cls-27" x="61.48" y="184.16" width="71.33" height="3" rx="1.43"/><rect class="cls-27" x="61.48" y="189.52" width="64.17" height="3" rx="1.36"/><path class="cls-27" d="M145.31,249.71H69.71a1.5,1.5,0,0,1-1.5-1.5h0a1.5,1.5,0,0,1,1.5-1.5h75.6a1.5,1.5,0,0,1,1.5,1.5h0A1.5,1.5,0,0,1,145.31,249.71Z" transform="translate(-6.73 -51.83)"/><rect class="cls-27" x="61.48" y="200.23" width="57.08" height="3" rx="1.28"/><rect class="cls-27" x="61.48" y="205.58" width="72.08" height="3" rx="1.44"/><path class="cls-27" d="M145.31,265.77H69.71a1.5,1.5,0,0,1-1.5-1.5h0a1.5,1.5,0,0,1,1.5-1.5h75.6a1.5,1.5,0,0,1,1.5,1.5h0A1.5,1.5,0,0,1,145.31,265.77Z" transform="translate(-6.73 -51.83)"/><path class="cls-28" d="M188,251.07a17.76,17.76,0,1,1-17.77-17.75h0a17.75,17.75,0,0,1,17.69,16.34Q188,250.37,188,251.07Z" transform="translate(-6.73 -51.83)"/><path class="cls-29" d="M187.89,249.66l-17.69,1.41,4.1-17.27A17.75,17.75,0,0,1,187.89,249.66Z" transform="translate(-6.73 -51.83)"/><path class="cls-30" d="M227.47,236.14H193.31a1.19,1.19,0,0,1-1.17-1.17h0a1.17,1.17,0,0,1,1.17-1.17h34.16a1.17,1.17,0,0,1,1.17,1.17h0A1.17,1.17,0,0,1,227.47,236.14Z" transform="translate(-6.73 -51.83)"/><rect class="cls-30" x="185.42" y="186.61" width="31.37" height="2.34" rx="1.08"/><rect class="cls-30" x="185.42" y="191.27" width="24.25" height="2.34" rx="0.95"/><path class="cls-30" d="M227.47,250.09H193.31a1.17,1.17,0,0,1-1.17-1.17h0a1.17,1.17,0,0,1,1.17-1.17h34.16a1.17,1.17,0,0,1,1.17,1.17h0A1.17,1.17,0,0,1,227.47,250.09Z" transform="translate(-6.73 -51.83)"/><rect class="cls-30" x="185.42" y="200.57" width="32.5" height="2.34" rx="1.1"/><path class="cls-30" d="M227.47,259.39H193.31a1.17,1.17,0,0,1-1.17-1.17h0a1.19,1.19,0,0,1,1.17-1.17h34.16a1.17,1.17,0,0,1,1.17,1.17h0A1.17,1.17,0,0,1,227.47,259.39Z" transform="translate(-6.73 -51.83)"/><rect class="cls-30" x="185.42" y="209.87" width="29.5" height="2.34" rx="1.05"/><path class="cls-30" d="M227.47,268.7H193.31a1.19,1.19,0,0,1-1.17-1.17h0a1.17,1.17,0,0,1,1.17-1.17h34.16a1.17,1.17,0,0,1,1.17,1.17h0A1.17,1.17,0,0,1,227.47,268.7Z" transform="translate(-6.73 -51.83)"/><path class="cls-31" d="M330.14,136.26V292.65a6.74,6.74,0,0,1-6.74,6.74H65.4a6.74,6.74,0,0,1-6.74-6.74V136.26a6.74,6.74,0,0,1,6.74-6.74h258A6.74,6.74,0,0,1,330.14,136.26Z" transform="translate(-6.73 -51.83)"/><g class="cls-24"><path class="cls-32" d="M147.89,211.81c.09-.38-.35-.49-.81.26A4.25,4.25,0,0,1,144.2,214c-.08-.2.2-.27.4-.71s.08-.83-.13-.91-.54.5-.67.6l-1.49,1.24a3.23,3.23,0,0,0-1.06,1.44,1.12,1.12,0,0,1-.07.36c-3.25,2.48-14,5.58-15.44,6.46a25.2,25.2,0,0,1-5.35.24v-.55s-4.44-.74-6.56-2a4.83,4.83,0,0,0-3-.6,3.74,3.74,0,0,0-.32-.49l-.06-.08c-.54-.63-1.34-1-1.83-1.62A8.42,8.42,0,0,1,109,214a14.34,14.34,0,0,1,2.94-2.83,3,3,0,0,0,.74-3.16,24.25,24.25,0,0,0-1.1-4.2c-.25-.51-.69-.86-.92-1.31-.05-.08-.09-.16-.13-.24.63-.71-1.21-5.87-6.88-5.73a9.71,9.71,0,0,0-4.19.78c-1.27.64-2.69,1.79-2.6,2.93-2,.39-2.29,2.43-2.45,3.2a10.22,10.22,0,0,0-.12,3.31c.21,1.63.82,3.19,1.14,4.8a7,7,0,0,1-.18,4c-.5,1.2-1.69,1.85-2.3,3a5.32,5.32,0,0,0,.07,4.82c.36.67.74,1.24,1,1.82a57.88,57.88,0,0,0-1.65,6.07l-14.82,2.57a.81.81,0,0,0-.66.93l3.69,21.7a.8.8,0,0,0,.93.65h0L94,254.93a21,21,0,0,0,0,5.14c.2,1.47,1.68,5.51,1.91,7,.52,3.35,1.59,8.26,1.53,12.07a9.6,9.6,0,0,0,1,.66,87.8,87.8,0,0,1,1.38,9.41c-.2,1.43-1.78,5.45-2.32,9.66a1.82,1.82,0,0,1-.06.55h8.24c.57-3,1-5.68,1.33-7.71h0c.07-.51.13-1,.18-1.38v-.12a2.21,2.21,0,0,1,.06-.64c0-.35,0-.72.08-1.1v-5.18l2.45,7.09a45.43,45.43,0,0,0-1.46,9.05h7.89c.25-4.56.46-8.35.53-10.16a79.6,79.6,0,0,0-.25-9.52h0a84.32,84.32,0,0,0,0-14.65,53.41,53.41,0,0,0-2.79-13.52l7.75-1.32a.79.79,0,0,0,.65-.91h0l-3.42-20.17q.6,0,1.2.06a6.07,6.07,0,0,0,.17-.93c2.8-.24,5.13-.49,5.71-.6,4.54-.89,15.83-8.53,16.82-9.21a4.49,4.49,0,0,0,3.32-1.43,1.45,1.45,0,0,0,.25-.95c.32-.38.88-1.72-.09-1.44A4.12,4.12,0,0,0,147.89,211.81Z" transform="translate(-6.73 -51.83)"/></g><path class="cls-33" d="M128.59,335.74c0,1.37-9.94,2.48-22.21,2.48s-22.2-1.11-22.2-2.48,9.94-2.49,22.2-2.49S128.59,334.37,128.59,335.74Z" transform="translate(-6.73 -51.83)"/><path class="cls-34" d="M104.1,256.48,93.53,248A19.78,19.78,0,0,0,93,260.23c1,3.08-.06,5.27.46,6.73s4.07,20.76,3.87,22.19-1.77,5.45-2.31,9.66c-.65,5.05-.13,21.46-.62,25.83s3.54,5,3.73,3.53c1.59-12.63,6.11-32.36,6.65-38.67S104.79,271.71,104.1,256.48Z" transform="translate(-6.73 -51.83)"/><path class="cls-35" d="M104.43,268.91l-4.26,10.45a23.21,23.21,0,0,1,3.4,10.76c.13,2,0,4,.1,6a2,2,0,0,0,.07.43c.53-3,.93-5.42,1.06-7,.39-4.45.23-11.52-.15-20.64Z" transform="translate(-6.73 -51.83)"/><path class="cls-34" d="M98.75,324.14s-.86,4.59-.58,5.16a8.07,8.07,0,0,0,2.21,2.84c1,.61,3.26,1.32,3.45,1.6a.7.7,0,0,1-.11.93,4.62,4.62,0,0,1-3.15.88c-3-.42-3.36-1.75-5.12-1.92a2.23,2.23,0,0,1-1.71,0,2,2,0,0,1-1.22-1.9,8.72,8.72,0,0,1,1.26-3.26c.48-.94.73-5.21.73-5.21" transform="translate(-6.73 -51.83)"/><path class="cls-36" d="M104,334.89c.21-.38.25-1,.05-1.09a17.84,17.84,0,0,0-1.9-1.08c-.6-.26-1.53-.47-1.2-.3s-.25.84-.8.82c-1.89-.07-3.31-1.29-4.39-1.54a3.67,3.67,0,0,1-2.33-2.46,7.21,7.21,0,0,0-1.07,2.15,3.76,3.76,0,0,0-.19,1.63,3.67,3.67,0,0,1,.21,1.54,2.92,2.92,0,0,0,1.12.38,4.9,4.9,0,0,0,1.21,0l.11-1a4.21,4.21,0,0,1,1,.07,5.42,5.42,0,0,1,1.48.65c.22.25.41.72.7.86a6,6,0,0,0,2.49.55C102.43,336.15,103.6,335.54,104,334.89Z" transform="translate(-6.73 -51.83)"/><path class="cls-34" d="M119.31,333.91c-.23-.24-2.63-.61-3.76-1.06a6.55,6.55,0,0,1-2.66-2.48,27.87,27.87,0,0,1-.21-5c.14-9,1.57-30.88,1.76-36.13.32-9.12-1-18.52-4.61-33.11l-13.16-9.9s-3.59,6.84-2.3,13.33c.75,3.76,3.88,4.31,4.42,5.77s8.69,25,8.69,25A44.66,44.66,0,0,0,106,301.05c0,4.78,2.29,19.18,2.74,24.67a20.12,20.12,0,0,1,0,4.46c-.37,1-1.35,2.19-1.29,3.45a2,2,0,0,0,1.5,1.71c.93.27,1.44-.27,1.76-.28,1.84-.1,2.36,1.16,5.54,1.13a5.07,5.07,0,0,0,3.15-1.34A.69.69,0,0,0,119.31,333.91Z" transform="translate(-6.73 -51.83)"/><path class="cls-36" d="M119.59,335c.17-.41.14-1-.09-1.08a19.66,19.66,0,0,0-2.1-.79c-.65-.16-1.64-.23-1.27-.12s-.16.88-.73.94c-2,.21-3.59-.78-4.73-.86a3,3,0,0,1-2.4-2.1,7.52,7.52,0,0,0-1.15,2.3,3.5,3.5,0,0,0,0,1.64,3.73,3.73,0,0,1,.41,1.5,3,3,0,0,0,1.21.2,4.71,4.71,0,0,0,1.24-.19v-1a4.77,4.77,0,0,1,1-.08,3.32,3.32,0,0,1,1.63.56c.27.2.56.54.88.62a6.6,6.6,0,0,0,2.58.16C118.17,336.48,119.31,335.73,119.59,335Z" transform="translate(-6.73 -51.83)"/><path class="cls-34" d="M140.31,218.48a4.45,4.45,0,0,0,3.34-1.43,1.58,1.58,0,0,0,.25-1c.32-.38.87-1.72-.09-1.44a4.09,4.09,0,0,0,1.51-2.81c.09-.38-.34-.49-.8.26a4.25,4.25,0,0,1-2.88,1.92c-.08-.2.19-.27.4-.71s.08-.83-.14-.91-.54.5-.67.6l-1.45,1.24a3,3,0,0,0-1.06,1.44c0,.11-.3,1.23.18,1.07" transform="translate(-6.73 -51.83)"/><path class="cls-34" d="M108.62,228.78c4.91-.06,13.69-.89,14.89-1.13,4.76-.93,16.91-9.26,16.91-9.26a2.31,2.31,0,0,0-1.62-2.48c-3.08,2.5-14.12,5.66-15.59,6.56-.95.58-16.37-.06-16.37-.06" transform="translate(-6.73 -51.83)"/><path class="cls-37" d="M92.31,222.76a62.56,62.56,0,0,0-2.76,10.05l5,.8v-7.13" transform="translate(-6.73 -51.83)"/><rect class="cls-38" x="75.83" y="230.21" width="42.47" height="23.61" rx="0.8" transform="translate(-45.89 -32.15) rotate(-9.64)"/><path class="cls-39" d="M117.83,248.83l-38,6.63a.71.71,0,0,1-.81-.57L75.81,236a.71.71,0,0,1,.57-.81l38.05-6.62a.71.71,0,0,1,.81.57L118.45,248a.68.68,0,0,1-.57.79Z" transform="translate(-6.73 -51.83)"/><path class="cls-40" d="M81.77,253.69l-.63.11a.61.61,0,0,1-.7-.49L77.67,237a.61.61,0,0,1,.5-.69l.63-.11a.62.62,0,0,1,.7.5L82.31,253a.61.61,0,0,1-.5.69Z" transform="translate(-6.73 -51.83)"/><path class="cls-40" d="M85.19,253l-.64.11a.61.61,0,0,1-.69-.5l-2.77-16.29a.6.6,0,0,1,.49-.69l.64-.11a.59.59,0,0,1,.69.47v0l2.77,16.29a.6.6,0,0,1-.48.7Z" transform="translate(-6.73 -51.83)"/><path class="cls-40" d="M88.61,252.38l-.64.11a.59.59,0,0,1-.69-.47v0l-2.77-16.29A.6.6,0,0,1,85,235h0l.64-.11a.61.61,0,0,1,.69.5l2.77,16.29A.6.6,0,0,1,88.61,252.38Z" transform="translate(-6.73 -51.83)"/><path class="cls-40" d="M92,251.73l-.63.11a.62.62,0,0,1-.7-.5l-2.77-16.29a.6.6,0,0,1,.49-.69h0l.63-.11a.6.6,0,0,1,.7.48h0L92.52,251A.61.61,0,0,1,92,251.73Z" transform="translate(-6.73 -51.83)"/><path class="cls-40" d="M95.44,251.08l-.64.1a.6.6,0,0,1-.69-.49l-2.8-16.29a.62.62,0,0,1,.49-.7l.64-.1a.59.59,0,0,1,.69.47v0l2.77,16.29A.6.6,0,0,1,95.44,251.08Z" transform="translate(-6.73 -51.83)"/><path class="cls-6" d="M98.86,250.42l-.64.11a.6.6,0,0,1-.69-.49h0l-2.77-16.29a.59.59,0,0,1,.47-.69h0l.64-.11a.61.61,0,0,1,.69.49l2.77,16.3A.61.61,0,0,1,98.86,250.42Z" transform="translate(-6.73 -51.83)"/><path class="cls-6" d="M102.31,249.77l-.63.1a.6.6,0,0,1-.7-.48h0l-2.77-16.29a.62.62,0,0,1,.5-.7l.63-.1a.6.6,0,0,1,.7.48h0l2.77,16.29A.62.62,0,0,1,102.31,249.77Z" transform="translate(-6.73 -51.83)"/><path class="cls-6" d="M105.69,249.11l-.64.11a.61.61,0,0,1-.69-.49l-2.77-16.25a.61.61,0,0,1,.49-.69l.64-.11a.6.6,0,0,1,.69.49l2.77,16.3A.59.59,0,0,1,105.69,249.11Z" transform="translate(-6.73 -51.83)"/><path class="cls-6" d="M109.11,248.48l-.64.1a.59.59,0,0,1-.69-.47v0L105,231.78a.6.6,0,0,1,.48-.7h0l.64-.1a.6.6,0,0,1,.69.49l2.77,16.29A.63.63,0,0,1,109.11,248.48Z" transform="translate(-6.73 -51.83)"/><path class="cls-40" d="M112.52,247.8l-.63.11a.61.61,0,0,1-.7-.49l-2.77-16.3a.61.61,0,0,1,.5-.69l.63-.11a.62.62,0,0,1,.7.5L113,247.11a.6.6,0,0,1-.5.69Z" transform="translate(-6.73 -51.83)"/><path class="cls-40" d="M115.94,247.15l-.64.11a.61.61,0,0,1-.69-.5l-2.77-16.28a.6.6,0,0,1,.49-.69l.64-.11a.59.59,0,0,1,.69.47v0l2.77,16.31A.6.6,0,0,1,115.94,247.15Z" transform="translate(-6.73 -51.83)"/><path class="cls-36" d="M95.8,246.18c-3.64,3.14-5,8.34-4.3,13.89.19,1.47,1.68,5.51,1.91,7,.52,3.35,1.59,8.26,1.52,12.07,4.88,3.54,14.78,3.23,19.26.59a82.39,82.39,0,0,0,0-14.65c-.53-9.63-4.82-18.61-4.91-19.41" transform="translate(-6.73 -51.83)"/><path class="cls-37" d="M109.2,237a44.48,44.48,0,0,0,.24,7.3,15.49,15.49,0,0,1,.24,1.92,1.15,1.15,0,0,1-.39.75,5.28,5.28,0,0,1-2.64,1c-3.61.65-9.32.21-10.93.53s-3.07-.21-3.07-1.13c0-.64.59-1,.64-2.26a75.78,75.78,0,0,0-.48-11.86,47,47,0,0,1-.62-16l11-3.14c.85.15.48,2.74,1.33,2.88.62.09,4.11,3.41,5.1,7.33a16.33,16.33,0,0,1,1.28,2.54,4.59,4.59,0,0,1,0,3.49A24.28,24.28,0,0,0,109.2,237Z" transform="translate(-6.73 -51.83)"/><path class="cls-41" d="M109.2,237a44.48,44.48,0,0,0,.24,7.3,15.49,15.49,0,0,1,.24,1.92,1.15,1.15,0,0,1-.39.75h0c.33-.73-.45-4.35-.79-6.38a22.85,22.85,0,0,1,.48-8.48c.72-2.49,1-3.67,1-3.67l1-1.5a4.59,4.59,0,0,1,0,3.49A24.24,24.24,0,0,0,109.2,237Z" transform="translate(-6.73 -51.83)"/><path class="cls-37" d="M108,219.61a4.84,4.84,0,0,1,3.25.56c2.13,1.25,6.57,2,6.57,2s.34,5.07-.21,7a27.16,27.16,0,0,0-5.84.24c-4.53.49-10.56,3.49-10.56,3.49" transform="translate(-6.73 -51.83)"/><path class="cls-34" d="M108.05,202.48c-1.08-2.07-2.79-5-6.89-4.59s-7.61,3-7.56,6.06,2.13,6.77,2.93,8.9a14,14,0,0,1,.46,5.28l9.09-.33s-.24-2.77.32-3.82a14.29,14.29,0,0,1,2.93-2.83,3,3,0,0,0,.75-3.16,24.25,24.25,0,0,0-1.1-4.2A14.85,14.85,0,0,0,108.05,202.48Z" transform="translate(-6.73 -51.83)"/><path class="cls-42" d="M107.89,219c-.55-.65-1.4-1-1.89-1.68a3.83,3.83,0,0,1-.65-2.46,4.64,4.64,0,0,1,.55-1.39c1-2,1-3.28-.36-4.89a5.7,5.7,0,0,1-1.16-1.74c-.21-.6-.37-1.25.2-1.61a.78.78,0,0,1,1,0c.23.2.87,2.1,1,.8s.58-1.57-.51-3.81c-.13-.27-.74-1.31-.65-1.55a3,3,0,0,1,2.47,1.54c.63-.71-1.21-5.87-6.88-5.73a9.71,9.71,0,0,0-4.19.78c-1.27.64-2.69,1.79-2.61,2.93-2,.39-2.29,2.43-2.44,3.2a9.74,9.74,0,0,0-.12,3.32c.21,1.62.82,3.18,1.14,4.79a7.08,7.08,0,0,1-.19,4c-.49,1.2-1.68,1.85-2.29,3a5.26,5.26,0,0,0,.07,4.82c.78,1.48,1.76,2.46,1.5,4.28a5.85,5.85,0,0,0,1.92,5.56,6,6,0,0,0,4.34,1.17,10.09,10.09,0,0,0,3.55-1.12c2.11-1.15,4-1.89,5.37-5,.78-1.73-.36-2,.33-3.74.39-1,1.22-1.82,1.32-2.92A3.66,3.66,0,0,0,108,219Z" transform="translate(-6.73 -51.83)"/><path class="cls-43" d="M303.94,299a10.94,10.94,0,0,0-1-1.27h0v-.05c-.19-.23-.39-.46-.59-.68-3.59-4.33-3.81-8-3.81-8.1-.06-4.91-.12-11.74-.18-16.56v-4.56s.06-.39.15-.9.19-1.15.29-1.66.21-1.15.31-1.83h0a18.38,18.38,0,0,0,0-5.34,6.17,6.17,0,0,1,1.8.39s-.73-2.58-1.49-5.66c-.28-1.09-.55-2.24-.81-3.36a45,45,0,0,1-1-5.52c-.17-2.57.57-6.35,1.07-10.56.12-1,.22-2.05.29-3.1s.12-2,.12-3v-.92a19,19,0,0,0-1.63-7c-.14-.31-.28-.61-.44-.9a28.83,28.83,0,0,0-3.33-5,3,3,0,0,0-1-1.51,9.13,9.13,0,0,1-.26-3.08c1.54-.64,3.12-6.67,2.41-11q-.06-.39-.15-.75c-.89-3.8-3.34-5.29-5.14-5-3.9-4.76-9.8.45-11.16,1.1a16.43,16.43,0,0,1-4.79,1.52,6.34,6.34,0,0,1-1.07.06,2.24,2.24,0,0,1-.68-.1c.31,4,1.8,5.92,3.66,6.62a5,5,0,0,0,1.26.31,8.34,8.34,0,0,0,1,0,2.88,2.88,0,0,0,.59,2.19c.09.14.46.34.5.51a4.63,4.63,0,0,1,0,1.66.33.33,0,0,0,0,.14c-.09.42-.19,1-.26,1.53,0,.31-.06.62-.06.87a1.4,1.4,0,0,0,.06.5c.12.32.54.4,1,.39h.48l.2.42a12.27,12.27,0,0,0,2,3,2.78,2.78,0,0,0,.74.19,9.58,9.58,0,0,0,4.25-.86,8.68,8.68,0,0,1,.33,1.21l-.65.22a16.74,16.74,0,0,0,0,2.24,8.61,8.61,0,0,0-.74.74,4.87,4.87,0,0,0-.4.5,3.45,3.45,0,0,0-.2.32,37.27,37.27,0,0,0-4.08,9c-.42,1.29-.79,2.61-1.12,4v.06l-.63.1c-2.79.5-7.71,1.5-12.89,2.94l-1.47.42v.24a23.77,23.77,0,0,0-2.8,0c-.48,0-1.48,1-2.42,1.73-.76.87-1.45,1.65-1.24,1.78h.12a1.4,1.4,0,0,0,.71-.4.58.58,0,0,0,.41,0c.37-.11.93-.8,1.2-1s.42-.28.7-.46a2,2,0,0,1,.91,0,.43.43,0,0,1-.23.53c-.25.16-.84.23-.89.4s0,.48.85.32a4.53,4.53,0,0,0,1.76-.72,2.06,2.06,0,0,1,1.2-.38v.33s6.42.06,12.46-.08h1q-.14.7-.24,1.41h-.37l-2.19.06a.49.49,0,0,0-.17,0h-20.3l-1.5-4.17-1.12-3.1-1.43-4-2.53-7.21a.64.64,0,0,0-.8-.38l-.26.1a.62.62,0,0,0-.38.8h0l2.39,6.63,1.43,4,1.11,3.1,1.51,4.12c-.48-.4-.75-.45-.68,0a4.46,4.46,0,0,0,2.34,2.69,14.08,14.08,0,0,0,2.63.74,2.41,2.41,0,0,0,1,0,10,10,0,0,1,1.88-.25v.66s6.63.71,11.22,1.37c1.89.27,3.75.43,5.47.51-.05.48-.11,1-.16,1.45-.17,1.66-.3,3.27-.4,4.77-.09,1.19-.16,2.31-.22,3.36-.23,4.41-.27,7.45-.45,7.83,0,0,.57.58,2.56.7a8.69,8.69,0,0,0,.09,1.23h0c-.07.62-.24,3.11-.47,6.31-.07,1.1-.16,2.28-.24,3.5-.35,5-.75,10.75-1,13.88a3.85,3.85,0,0,0-.23,1.54v4.29c.07,1.62.21,4.21.38,7.35h8.28a4.51,4.51,0,0,0-.17-.89l-.06-.32a2.71,2.71,0,0,0-.07-.69c-.46-3.87-.47-2.75.59-7.64l1.92-4.89c1.14,4,2.09,7.5,2.49,9.54v.05l.06.31a2.91,2.91,0,0,0,.16.5c0,.05,0,.11.07.17a5.64,5.64,0,0,0,.48.95v.05c.47.75,1.1,1.72,1.84,2.86h10.55Z" transform="translate(-6.73 -51.83)"/><g class="cls-44"><path class="cls-6" d="M258.72,334.16c0,.94,14.26,1.71,31.85,1.71s31.85-.77,31.85-1.71-14.26-1.68-31.85-1.68S258.72,333.22,258.72,334.16Z" transform="translate(-6.73 -51.83)"/></g><path class="cls-34" d="M276.75,325.25a42.66,42.66,0,0,0,.06,5.54c.18.81,2.71.89,3,.46a46,46,0,0,0,.7-5.66" transform="translate(-6.73 -51.83)"/><path class="cls-45" d="M280.52,332a17.45,17.45,0,0,1-.24,2.28h-3l-.15-.51a5,5,0,0,1-1.76.51h-2.58c-1.89,0-3-.24-3-.58-.2-1.38,2.05-1.32,2.64-1.32,1.68,0,3.5-.79,3.9-1.64.29-.62.16-.78.51-.66a.83.83,0,0,1,.52.45,1.56,1.56,0,0,0,1.59.87,1.91,1.91,0,0,0,1-.5A1.1,1.1,0,0,1,280.52,332Z" transform="translate(-6.73 -51.83)"/><path class="cls-34" d="M308.47,325.81s.84,2.24,1.2,3,2.85-.17,3-.68-1.89-4.38-1.89-4.38" transform="translate(-6.73 -51.83)"/><path class="cls-45" d="M313.57,328.54c.32.8.79,2.36.79,2.36l-2.31,1.38-.45-.34a4.47,4.47,0,0,1-1.22,1.27,10,10,0,0,1-2.29,1c-2.11.48-3.74.25-3.91,0-.7-1.22,2.1-1.88,2.65-2.1a3.77,3.77,0,0,0,2.33-3.08c0-.68-.14-.78.23-.8,0,0,.71-.12,1.13.94,0,0,1.67-.3,2.09-1.35A1.11,1.11,0,0,1,313.57,328.54Z" transform="translate(-6.73 -51.83)"/><path class="cls-36" d="M295.57,267.77s.24-1.55.44-2.56c.62-3.2,1.59-9.62-3.64-14.68,0,0-6.18,2.76-11.12,3.1-3.89.26-4.78,0-4.78,0s-.25,5.26,1.32,18.42Z" transform="translate(-6.73 -51.83)"/><path class="cls-36" d="M312.12,324.8a21.06,21.06,0,0,1-4,1.93l-.37-.64c-.25-.48-.52-1-.8-1.45h0v-.08c-.88-1.54-1.85-3.17-2.87-4.85h0c-5.49-9-12.49-19.13-15-23.12v0a5.64,5.64,0,0,1-.48-1,.18.18,0,0,0-.07-.17,2.91,2.91,0,0,1-.16-.5l-.06-.31v-.05a2.1,2.1,0,0,1,.5-1.78,1.47,1.47,0,0,1,.32-.29c1.34-1,4-.75,6.26.82l.35.26.17.12a21.58,21.58,0,0,1,5.34,5.36C306.31,306.65,309.31,318.24,312.12,324.8Z" transform="translate(-6.73 -51.83)"/><path class="cls-36" d="M295.87,294.41c.09,4.22-1.46,5.19-3.17,4.76a4,4,0,0,1-.88-.32,7.69,7.69,0,0,1-2.87-2.56v-.05a3.72,3.72,0,0,1-.38-.71.18.18,0,0,0-.07-.17,2.91,2.91,0,0,1-.16-.5l-.06-.31v-.05c-.42-2.1-1.4-5.71-2.6-9.91l-2.16-7.54c-2.25-7.77-4.38-15.4-4.32-17.63.22-8,9.53-1.64,14,1.5,1.87,1.34,2.36,3.63,2.39,5.74s.21,21.53.29,27v.39C295.88,294.17,295.87,294.3,295.87,294.41Z" transform="translate(-6.73 -51.83)"/><path class="cls-36" d="M295.8,288.88s.19,4.16,4.44,8.84c0,0-6.14-1.86-6.48-2.21a22.37,22.37,0,0,1-1.86-4.73C292,290.34,295.8,288.88,295.8,288.88Z" transform="translate(-6.73 -51.83)"/><path class="cls-46" d="M306.94,324.55c-.88-1.54-1.85-3.17-2.87-4.85h0c-5.49-9-12.49-19.13-15-23.12v-.05a5.64,5.64,0,0,1-.48-.95.18.18,0,0,0-.07-.17,2.91,2.91,0,0,1-.16-.5l-.06-.31v-.05c-.42-2.1-1.4-5.71-2.6-9.91l7-18.84h2.56s-2.88,8.7-4.06,12.62-1.5,10-1.6,12.29c-.23,4.92,5.82,13.28,7.55,16.32C299,310.26,306.31,323.3,306.94,324.55Z" transform="translate(-6.73 -51.83)"/><path class="cls-36" d="M280.58,328.89h-.37a20.62,20.62,0,0,1-4-.3v-.74c.21-11.37-1.06-30-1.3-35.82v-4.29c-.11-5,5-.55,6.8,3.41a16.25,16.25,0,0,1,1,3.05c.32,1.32.33,2.79.66,4.29C285.31,307.36,281.38,321.57,280.58,328.89Z" transform="translate(-6.73 -51.83)"/><path class="cls-36" d="M292.62,267.73c0,.12-8.37,20.84-10,25.34h0a2.71,2.71,0,0,1-2,1.38c-2.25.56-5.56-.36-5.73-4.82A10.79,10.79,0,0,1,275,288c.38-3.61,1.67-23.58,1.88-25.51s.62-4.73,1.64-5.06C283.6,255.83,294.13,260.53,292.62,267.73Z" transform="translate(-6.73 -51.83)"/><path class="cls-36" d="M283.91,289.48c-1.13,5.3-1.13,4-.66,8s-1.24-3.37-1.24-3.37l1.07-2.7Z" transform="translate(-6.73 -51.83)"/><path class="cls-47" d="M260.67,234.86a5.35,5.35,0,0,0-1.26-.09c-.14.1-.29.19-.44.28v.22h-.08l-.92.59c-.08.07-1,1.16-1,1.16a.59.59,0,0,0,.52,0c.37-.11.93-.8,1.2-1s.42-.28.7-.46a1.41,1.41,0,0,1,1.21.2C261,236.29,260.67,234.86,260.67,234.86Z" transform="translate(-6.73 -51.83)"/><path class="cls-34" d="M265.87,233.16s-2,.66-2.68.78-2.39-.1-3.33,0c-.48,0-1.48,1-2.42,1.73-.76.87-1.45,1.65-1.24,1.78.42.26,1.5-1.09,2.38-1.72.67-.48,1.23-.46,1.53-.25s.17.52-.09.69-.84.23-.89.4,0,.48.85.32a4.53,4.53,0,0,0,1.76-.72,2.14,2.14,0,0,1,1.2-.38c.63-.07,3.75-.62,3.75-.62" transform="translate(-6.73 -51.83)"/><path class="cls-37" d="M279.17,230l-.64,5.39-.07.55h-.52l-2.49.08c-6,.14-12.46.08-12.46.08l-.36-2.39A147.32,147.32,0,0,1,277,230.36Z" transform="translate(-6.73 -51.83)"/><rect class="cls-6" x="248.36" y="218.13" width="1.54" height="20.83" rx="0.63" transform="translate(-69.37 45.97) rotate(-19.78)"/><rect class="cls-6" x="245.08" y="185.65" width="22.38" height="1.59" rx="0.73"/><path class="cls-41" d="M279.17,230l-.64,5.39c-.18.17-.37.37-.59.56l-2.49.08a46.57,46.57,0,0,1,1.54-5.67Z" transform="translate(-6.73 -51.83)"/><path class="cls-37" d="M298.1,258.41c-2.74-1.11-6.84.12-14.55,2s-9.37.16-9.37.16c.28-.59.21-7.46,1.07-16,.18-1.83.42-3.74.69-5.67,1.16-7.87,3.23-16.24,7.1-22,1.92-2.85,7.36-4.24,7.36-4.24,3,3.63,5.91,8,5.9,14.48s-1.73,12.92-1.48,16.69S298.1,258.41,298.1,258.41Z" transform="translate(-6.73 -51.83)"/><path class="cls-41" d="M281.88,244.54a40.76,40.76,0,0,1-6.63.08c.18-1.83.42-3.74.69-5.67h.26a3.21,3.21,0,0,0,3-2.4c.52-1.94,1.38-5,2.69-9.08,2.32-7.25,4.74-7.53,4.74-7.53s3.54-1.82,3.69,2S286.41,244,281.88,244.54Z" transform="translate(-6.73 -51.83)"/><path class="cls-36" d="M292.19,268.83s2.63-1,4.13-5.46l-1.63-2.89-3.45,1.61a25.75,25.75,0,0,0-.47,3.27C290.9,265.53,292.19,268.83,292.19,268.83Z" transform="translate(-6.73 -51.83)"/><path class="cls-34" d="M260.12,240.19l-.24-1.93a15.57,15.57,0,0,1-2.55.13c-.82-.1-1.8-.54-3-.76s-1.46.25-1.27.54,1.57.5,1.57.5.19.17-.54.17h-.78a3.11,3.11,0,0,1-.89-.4L252,238c-.78-.83-1.28-1.09-1.19-.53a4.46,4.46,0,0,0,2.34,2.69,14.08,14.08,0,0,0,2.63.74,2.41,2.41,0,0,0,1,0,10.63,10.63,0,0,1,2.24-.27h1.07C261.64,240.76,260.87,240.48,260.12,240.19Z" transform="translate(-6.73 -51.83)"/><path class="cls-37" d="M286.31,218.48s-2.42.28-4.75,7.53c-1.29,4.06-2.16,7.14-2.68,9.08a3.21,3.21,0,0,1-3,2.4l-17,.45-.11,3.38s6.63.71,11.22,1.37a49.52,49.52,0,0,0,11.54.39c4.54-.55,9-20.47,8.77-22.5C289.91,217.37,286.31,218.48,286.31,218.48Z" transform="translate(-6.73 -51.83)"/><path class="cls-48" d="M275.07,201.35s-.44.86.53,2.36c.09.14.46.34.5.51a5.44,5.44,0,0,1,0,1.8,16.18,16.18,0,0,0,3.42,6.68c1.64.72,4.85-.42,7.56-1.85.58,0,3.78-1.62,3.31-6.17a17,17,0,0,0-4.25-8.81c-.25-.1-7.27,1.19-7.55,1.25S275.07,201.35,275.07,201.35Z" transform="translate(-6.73 -51.83)"/><path class="cls-49" d="M285.17,203.08a2.76,2.76,0,0,1-1.93-2.83c-.08-2.42-.39-2.5-1.87-1.15s-11.46,6.62-12.31-4.55c1.1.36,3.91-.21,6.54-1.48,1.36-.65,7.26-5.86,11.16-1.1,1.92-.34,4.57,1.37,5.29,5.72s-.87,10.37-2.41,11c-1,.42-1.47-.59-1.84-2.65-.15-1.07,2.64-3.15-.3-5.84a1.89,1.89,0,0,0-2.33,2.88Z" transform="translate(-6.73 -51.83)"/><path class="cls-48" d="M289.64,208.7s-.28,3.13.88,4.11c-1.78,2.16-5.79,2.48-5.79,2.48s.91-1.47-1.14-5.28S289.64,208.7,289.64,208.7Z" transform="translate(-6.73 -51.83)"/><path class="cls-37" d="M284.18,215.7a16.74,16.74,0,0,1,0-2.24,57.55,57.55,0,0,1,5.72-1.68,3,3,0,0,1,1,1.51A29.79,29.79,0,0,1,284.18,215.7Z" transform="translate(-6.73 -51.83)"/><path class="cls-48" d="M276.22,205.35s-.65,2.88-.39,3.57,2,.25,2,.25Z" transform="translate(-6.73 -51.83)"/><rect class="cls-50" x="244.39" y="91.16" width="90.84" height="43.5" rx="2.79"/><path class="cls-25" d="M340,143.79v37.92a2.79,2.79,0,0,1-2.79,2.79H251.92a2.79,2.79,0,0,1-2.8-2.78h0V143.79a2.79,2.79,0,0,1,2.79-2.79h85.26a2.79,2.79,0,0,1,2.79,2.79Z" transform="translate(-6.73 -51.83)"/><path class="cls-37" d="M340,143.79v5.46H249.12v-5.46a2.79,2.79,0,0,1,2.79-2.79h85.26a2.79,2.79,0,0,1,2.79,2.79Z" transform="translate(-6.73 -51.83)"/><path class="cls-33" d="M336.38,153.83V180H252.54v-8.36c3.38-4.64,8-7.73,18.58-1.48,10.17,6,10.14-13.33,21.75-12.33s14.71,18.34,23.71,5.09S336.38,153.83,336.38,153.83Z" transform="translate(-6.73 -51.83)"/><rect class="cls-33" x="245.81" y="101.83" width="16.52" height="1.13"/><rect class="cls-33" x="245.81" y="103.83" width="27.92" height="1.13"/><rect class="cls-33" x="245.81" y="105.83" width="20.96" height="1.13"/><rect class="cls-33" x="245.81" y="107.83" width="25.29" height="1.13"/><rect class="cls-33" x="245.81" y="109.83" width="16.52" height="1.13"/><path class="cls-51" d="M129.56,129.48a27,27,0,0,1-50.65,0Z" transform="translate(-6.73 -51.83)"/><path class="cls-52" d="M79.31,102.69a27,27,0,0,0-3.38,24.19l25.56-8.77Z" transform="translate(-6.73 -51.83)"/><path class="cls-6" d="M105.36,88.59v27l19.87,18.3a27,27,0,0,0-19.87-45.32Z" transform="translate(-6.73 -51.83)"/><path class="cls-53" d="M101.49,91.09a27,27,0,0,0-22.18,11.6l22.18,15.42Z" transform="translate(-6.73 -51.83)"/><path class="cls-54" d="M96.47,144.65a27,27,0,0,0,24.89-8.24l-19.87-18.3Z" transform="translate(-6.73 -51.83)"/><path class="cls-37" d="M75.93,126.88a27,27,0,0,0,20.54,17.77l5-26.54Z" transform="translate(-6.73 -51.83)"/><path class="cls-55" d="M88.31,188.48h-36a1.79,1.79,0,0,0-1.79,1.79h0v11.37a1.79,1.79,0,0,0,1.79,1.79H82.16c.15,1.2,1,3.57,5.34,3.57,0,0-1.79-.32-2.16-3.57h3a1.79,1.79,0,0,0,1.79-1.79h0V190.23A1.79,1.79,0,0,0,88.31,188.48Z" transform="translate(-6.73 -51.83)"/><path class="cls-56" d="M87.59,187.54h-36a1.79,1.79,0,0,0-1.79,1.79h0V200.7a1.79,1.79,0,0,0,1.79,1.79H81.45c.15,1.2,1,3.57,5.33,3.57,0,0-1.79-.32-2.16-3.57h3a1.79,1.79,0,0,0,1.79-1.79h0V189.33a1.79,1.79,0,0,0-1.79-1.79Z" transform="translate(-6.73 -51.83)"/><rect class="cls-57" x="44.25" y="137.1" width="36.94" height="1.54" rx="0.55"/><rect class="cls-57" x="44.25" y="139.7" width="36.94" height="1.54" rx="0.55"/><rect class="cls-57" x="44.25" y="142.29" width="36.94" height="1.54" rx="0.55"/><rect class="cls-57" x="44.25" y="144.89" width="36.94" height="1.54" rx="0.55"/><rect class="cls-57" x="44.25" y="147.49" width="36.94" height="1.54" rx="0.55"/><path class="cls-58" d="M297.67,194.08h36a1.8,1.8,0,0,1,1.79,1.8v11.37a1.79,1.79,0,0,1-1.79,1.79H303.82c-.15,1.2-1,3.57-5.33,3.57,0,0,1.78-.32,2.16-3.57h-3a1.79,1.79,0,0,1-1.79-1.79V195.88a1.81,1.81,0,0,1,1.8-1.8Z" transform="translate(-6.73 -51.83)"/><path class="cls-56" d="M298.31,193.18h36a1.82,1.82,0,0,1,1.8,1.8v11.37a1.8,1.8,0,0,1-1.8,1.79H304.49c-.15,1.2-1,3.57-5.33,3.57,0,0,1.78-.33,2.15-3.57h-3a1.8,1.8,0,0,1-1.8-1.79V195A1.82,1.82,0,0,1,298.31,193.18Z" transform="translate(-6.73 -51.83)"/><rect class="cls-37" x="316.85" y="142.93" width="11.37" height="11.75" rx="0.84"/><rect class="cls-59" x="291.37" y="142.93" width="23.93" height="1.48" rx="0.43"/><rect class="cls-59" x="296.6" y="145.49" width="18.7" height="1.48" rx="0.38"/><rect class="cls-59" x="291.37" y="148.07" width="23.93" height="1.48" rx="0.43"/><rect class="cls-59" x="293.31" y="150.64" width="21.99" height="1.48" rx="0.42"/><rect class="cls-59" x="306.14" y="153.2" width="9.16" height="1.48" rx="0.27"/><path class="cls-37" d="M230.67,129.48H194.31a4,4,0,0,1,.35-1.27c.93-2.18,4.29-6.59,16.43-8.56l6-1.23S231,118.48,230.67,129.48Z" transform="translate(-6.73 -51.83)"/><path class="cls-41" d="M218.62,129.48H194.31a4,4,0,0,1,.35-1.27,5.62,5.62,0,0,1,2.88,0l1.49.39h15.8C217.93,128.62,218.62,129.48,218.62,129.48Z" transform="translate(-6.73 -51.83)"/><path class="cls-34" d="M209.7,119a6,6,0,0,1,.84,2.06,2,2,0,0,0,2.07,1.55c5.31-.3,5-3.61,5-3.61-1.09-1.68-1.76-6.64-1.76-6.64" transform="translate(-6.73 -51.83)"/><path class="cls-49" d="M197.31,103.72s-.22,6.67,2.76,6.57,0-7.35,0-7.35Z" transform="translate(-6.73 -51.83)"/><path class="cls-34" d="M215.09,111.08a14.15,14.15,0,0,1,0,2.52v.27a.49.49,0,0,1-.06.28c-.72,2.85-4.34,6.88-6.88,7.21a5.57,5.57,0,0,1-1,0c-3.53-.16-5.6-3-6.79-6.14l-.12-.32a28.08,28.08,0,0,1-1.49-6.83c0-.25-.19-2.87.33-3.65s7.55-1.67,7.69-1.68,6.86.47,6.86.47A72.47,72.47,0,0,1,215.09,111.08Z" transform="translate(-6.73 -51.83)"/><path class="cls-49" d="M216.17,111a10.76,10.76,0,0,1-.08,2.47v.28c-.46,2.85-4,7.28-7.88,7.64-.3,0-.6.06-.87.07-4.25.18-5.73-3-6.9-6.2l-.12-.32s1.47,2.36,2.21,2.43-.22-.86,1.78-1.63a9.85,9.85,0,0,1,4.11-.34c.83.11,2.33.54,2.86.61a.76.76,0,0,0,.3,0,9.68,9.68,0,0,0,2.67-4.58C214.31,110.78,215.62,110.87,216.17,111Z" transform="translate(-6.73 -51.83)"/><path class="cls-49" d="M195.89,101.67s.22,5.12,8.63,3.07c2.31-.56,4.35-1.09,5.49-.47,1.72,5.41,1.78,8,2.39,7.8s-1.3-4.77,1.33-4.28c2,.37-.09,5.33-.09,5.33s2.45.32,2.52-.81c0-.68.12-10.38-1.55-12.68A4.6,4.6,0,0,0,211,97.44s-2.1-1.78-7.06-.33-7.58-.38-7.56-.23A9.87,9.87,0,0,0,195.89,101.67Z" transform="translate(-6.73 -51.83)"/><path class="cls-10" d="M230.67,129.48s-.43,8.75-4,14.33h0l-.1.14a.38.38,0,0,0-.09.13c-1.08,1.63-7.07,10.5-10.94,14-4.24,3.89-9.13,8.29-9.13,8.29l-.18-.15a11.68,11.68,0,0,0-1.4,1.5c-.33.6-.66,2.79-1.29,3a3.51,3.51,0,0,0-1.21.47,5.88,5.88,0,0,1-2-.2,4,4,0,0,1-.9.7,20.64,20.64,0,0,1-2.37,1.26c-.7.22-.82,0-.67-.44s1.49-1.19,2-1.57a7.24,7.24,0,0,0,1.59-2.09c.3-.66.3-1,0-1s-1.21.55-1.91.7-1,0-.7-.44a5.43,5.43,0,0,1,2.46-1.9,5,5,0,0,0,2.3-.92,7.5,7.5,0,0,0,1.29-1.57l-.28-.25s7.63-10.65,13.35-18.88l.38-.51a30.6,30.6,0,0,0,3.51-13.6,2,2,0,0,0-1-.94Z" transform="translate(-6.73 -51.83)"/><path class="cls-34" d="M203.36,162.64a13.53,13.53,0,0,1-2,2.75,4.73,4.73,0,0,1-2.3.92,5.53,5.53,0,0,0-2.46,1.89c-.34.41,0,.6.7.45s1.61-.71,1.91-.71.3.36,0,1a7.42,7.42,0,0,1-1.59,2.1c-.49.37-1.82,1.11-2,1.55s0,.67.67.45a19.19,19.19,0,0,0,2.37-1.26,4.35,4.35,0,0,0,.9-.7,5.88,5.88,0,0,0,2,.2,2.1,2.1,0,0,0,.93-.4,1.37,1.37,0,0,0,.29-.07c.63-.25,1-2.44,1.29-3a28.16,28.16,0,0,1,2.77-2.8Z" transform="translate(-6.73 -51.83)"/><path class="cls-37" d="M225.85,143.85h0c3.6-5.58,4.82-14.33,4.82-14.33l-4.59-3.13-2.35,1.09c-1.48-.64-4-1.59-4-1.59l-1.11,3.6a2,2,0,0,1,1,.93,31.14,31.14,0,0,1-3.54,13.73l-.38.51c-5.71,8.23-13.35,18.88-13.35,18.88l3.26,2.87s4.9-4.4,9.15-8.29c3.85-3.52,9.84-12.4,10.92-14l.1-.13Z" transform="translate(-6.73 -51.83)"/><path class="cls-55" d="M200.41,131.69h-.13a2.69,2.69,0,0,1,.27.32c.13.14,0,.23,0,.23-.18.19-.33.17-.56.16a.93.93,0,0,1-.41-.2.58.58,0,0,1-.52.11c-.22,0-.48-.23-.82-.58a.17.17,0,0,1,0,.17.63.63,0,0,1-.57.15,1.82,1.82,0,0,1-.88-.64c-.12-.12-.28-.32-.46-.53l-.45-.31a1.2,1.2,0,0,0-.69-.22h0c-1.72,0-2.5-.78-4.61-.78h9.52a3.83,3.83,0,0,1-.59.1h0c.13.14.25.29.36.42.38.46.89,1.06,1,1.16a.24.24,0,0,1,.05.25A.59.59,0,0,1,200.41,131.69Z" transform="translate(-6.73 -51.83)"/><path class="cls-34" d="M200,131.69h-.13a2.69,2.69,0,0,1,.27.32c.13.14,0,.23,0,.23-.18.19-.33.17-.56.16a.93.93,0,0,1-.41-.2.6.6,0,0,1-.53.11c-.21,0-.47-.23-.81-.58a.17.17,0,0,1,0,.17.63.63,0,0,1-.57.15c-.22,0-.51-.25-.88-.64-.12-.12-.29-.32-.46-.53l-.45-.31a1.2,1.2,0,0,0-.69-.22h0c-1.72,0-2.49-.78-4.6-.78,0,0,4.93-2.37,7.91-.69a10.76,10.76,0,0,0,1.26.13c.86,0,.61.45.34.6a3.7,3.7,0,0,1-.58.1h.05c.13.14.25.29.35.42.38.46.89,1.06,1,1.16a.24.24,0,0,1,.05.25A.62.62,0,0,1,200,131.69Z" transform="translate(-6.73 -51.83)"/><path class="cls-60" d="M199.71,129.56a3.7,3.7,0,0,1-.58.1,8.81,8.81,0,0,0-1-.83,10.76,10.76,0,0,0,1.26.13C200.23,129,200,129.41,199.71,129.56Z" transform="translate(-6.73 -51.83)"/><path class="cls-6" d="M358.67,334c0,1-7.35,1.83-16.41,1.83s-16.4-.81-16.4-1.83c0-.7,3.5-1.31,8.66-1.62l.26,1a1,1,0,0,0,.92.71h12.06a1,1,0,0,0,.93-.71l.28-1.06C354.69,332.65,358.67,333.29,358.67,334Z" transform="translate(-6.73 -51.83)"/><path class="cls-37" d="M335.7,312.24s-.56-5.88-8.28-8.76-13.19.54-13.19.54.75-7.07,6.86-6.75,7.33,4.25,7.33,4.25,3.31-3.44,6.21-.89c2.4,2.12,2,6.33,2,6.33s2.28.28,1.95,3.92a8.79,8.79,0,0,1-.2,1.25" transform="translate(-6.73 -51.83)"/><path class="cls-61" d="M335.7,312.24s-.56-5.88-8.28-8.76-13.19.54-13.19.54.75-7.07,6.86-6.75,7.33,4.25,7.33,4.25,3.31-3.44,6.21-.89c2.4,2.12,2,6.33,2,6.33s2.28.28,1.95,3.92a8.79,8.79,0,0,1-.2,1.25" transform="translate(-6.73 -51.83)"/><path class="cls-62" d="M340,312.18c-.08-18.33-9.29-26.49-9.39-26.57l.28-.33c.09.08,9.45,8.36,9.54,26.9Z" transform="translate(-6.73 -51.83)"/><path class="cls-62" d="M331.13,285.79a5,5,0,0,1-3.08-.7,1.35,1.35,0,0,1,1.68-2.12A4.75,4.75,0,0,1,331.13,285.79Z" transform="translate(-6.73 -51.83)"/><path class="cls-62" d="M331.88,286.54a5,5,0,0,1-1.27,2.94,1.37,1.37,0,0,1-1.91-.14,1.35,1.35,0,0,1,.13-1.9h0A4.71,4.71,0,0,1,331.88,286.54Z" transform="translate(-6.73 -51.83)"/><path class="cls-62" d="M331.81,286.58a5,5,0,0,1,1.47-2.79,1.37,1.37,0,0,1,1.9.28,1.34,1.34,0,0,1-.26,1.88h0A4.77,4.77,0,0,1,331.81,286.58Z" transform="translate(-6.73 -51.83)"/><path class="cls-62" d="M334.65,290.27a4.94,4.94,0,0,1-1.6,2.71,1.35,1.35,0,0,1-1.52-2.24A4.76,4.76,0,0,1,334.65,290.27Z" transform="translate(-6.73 -51.83)"/><path class="cls-62" d="M334.57,290.3a5,5,0,0,1,1.79-2.6,1.36,1.36,0,0,1,1.83.61,1.37,1.37,0,0,1-.47,1.74A4.74,4.74,0,0,1,334.57,290.3Z" transform="translate(-6.73 -51.83)"/><path class="cls-37" d="M343,312.13c-2.12-24.33,9.1-36.27,9.22-36.39l-.41-.39c-.12.12-11.51,12.23-9.37,36.83Z" transform="translate(-6.73 -51.83)"/><path class="cls-37" d="M351.53,276.05a6.82,6.82,0,0,0,4-1.3,1.81,1.81,0,0,0-2.49-2.62A6.35,6.35,0,0,0,351.53,276.05Z" transform="translate(-6.73 -51.83)"/><path class="cls-37" d="M350.62,277.13s.48,2.56,2,3.68A1.81,1.81,0,1,0,354.9,278a1.18,1.18,0,0,0-.18-.13A6.37,6.37,0,0,0,350.62,277.13Z" transform="translate(-6.73 -51.83)"/><path class="cls-37" d="M350.72,277.18a6.63,6.63,0,0,0-2.29-3.52,1.81,1.81,0,0,0-1.89,3.08A6.28,6.28,0,0,0,350.72,277.18Z" transform="translate(-6.73 -51.83)"/><path class="cls-37" d="M347.41,282.42s.76,2.48,2.45,3.4a1.8,1.8,0,0,0,1.83-3.1l-.09-.05A6.29,6.29,0,0,0,347.41,282.42Z" transform="translate(-6.73 -51.83)"/><path class="cls-37" d="M347.51,282.48s-.94-2.42-2.69-3.22a1.8,1.8,0,0,0-1.51,3.22A6.3,6.3,0,0,0,347.51,282.48Z" transform="translate(-6.73 -51.83)"/><path class="cls-37" d="M345.07,288.33s1,2.4,2.75,3.17a1.8,1.8,0,0,0,1.45-3.3A6.31,6.31,0,0,0,345.07,288.33Z" transform="translate(-6.73 -51.83)"/><path class="cls-37" d="M345.18,288.35a6.7,6.7,0,0,0-3-3,1.8,1.8,0,1,0-1.21,3.4A6.36,6.36,0,0,0,345.18,288.35Z" transform="translate(-6.73 -51.83)"/><path class="cls-37" d="M343.45,294.07a6.65,6.65,0,0,0,3.25,2.67,1.8,1.8,0,0,0,.87-3.5A6.38,6.38,0,0,0,343.45,294.07Z" transform="translate(-6.73 -51.83)"/><path class="cls-37" d="M343.56,294.08a6.52,6.52,0,0,0-3.42-2.43,1.8,1.8,0,0,0-.63,3.55h0A6.34,6.34,0,0,0,343.56,294.08Z" transform="translate(-6.73 -51.83)"/><path class="cls-37" d="M342.66,300a6.56,6.56,0,0,0,3.48,2.35,1.8,1.8,0,0,0,.54-3.56h0A6.29,6.29,0,0,0,342.66,300Z" transform="translate(-6.73 -51.83)"/><path class="cls-37" d="M342.77,300s-1.72-1.95-3.64-2.1a1.81,1.81,0,0,0-.29,3.6A6.37,6.37,0,0,0,342.77,300Z" transform="translate(-6.73 -51.83)"/><path class="cls-37" d="M342.4,307.19a6.56,6.56,0,0,0,3.48,2.35,1.8,1.8,0,1,0,.54-3.56A6.29,6.29,0,0,0,342.4,307.19Z" transform="translate(-6.73 -51.83)"/><path class="cls-37" d="M342.51,307.19s-1.72-1.95-3.64-2.1a1.8,1.8,0,1,0-.29,3.59h0A6.36,6.36,0,0,0,342.51,307.19Z" transform="translate(-6.73 -51.83)"/><path class="cls-63" d="M344.73,312.24s-3.42-10.85,3.58-12.53c0,0,.35-14.55,10.7-10.86,0,0,1.5-5.68,7.52-5.41s5.73,6,5.73,6,5.5.86,5.5,5.46c0,0-26.91-7.59-29.22,17.3" transform="translate(-6.73 -51.83)"/><path class="cls-64" d="M344.73,312.24s-3.42-10.85,3.58-12.53c0,0,.35-14.55,10.7-10.86,0,0,1.5-5.68,7.52-5.41s5.73,6,5.73,6,5.5.86,5.5,5.46c0,0-26.91-7.59-29.22,17.3" transform="translate(-6.73 -51.83)"/><path class="cls-65" d="M329.78,314.48l5,18.9a1,1,0,0,0,.92.71h12.06a1,1,0,0,0,.93-.71l5-18.9a1.86,1.86,0,0,0-1.32-2.28,1.91,1.91,0,0,0-.48-.06h-20.3a1.87,1.87,0,0,0-1.87,1.87A1.84,1.84,0,0,0,329.78,314.48Z" transform="translate(-6.73 -51.83)"/><line class="cls-66" x1="342.07" y1="262.64" x2="338.72" y2="280.37"/><g class="cls-67"><path class="cls-17" d="M418.26,246.31c-7.15-20.28-18.53-26.55-29.18-39.58-13.2-15.86-22-27.54-18.53-47.95,5.45-33.44,7.87-116.91-79.43-106-31.24,3.93-55.94,28.27-74,52.49-15.25,20.66-42.86,22.5-65,27.29-27.12,6-54.85,14.88-80,28C20.25,187.55,4.75,226.4,6.93,276.06c.6,15,2.78,38.61,27.73,66.27,33.66,37.25,82.58,42.29,141.55,25.2,13.44-3.93,26.27-10.08,39.47-14.75a181.13,181.13,0,0,1,42.62-9.35c33.79-3.32,68.9,2.71,101.35-7.62a105.74,105.74,0,0,0,45.29-28.52C420.32,290.82,425.89,267.83,418.26,246.31Z" transform="translate(-6.73 -51.83)"/></g></svg>