<svg id="Layer_1" data-name="Layer 1" xmlns="http://www.w3.org/2000/svg" viewBox="0 0 562.6 338.3"><defs><style>.cls-1{fill:#f9bfb5;}.cls-2{fill:#fc796b;}.cls-3{fill:#fff9fb;stroke:#fc796b;stroke-miterlimit:10;stroke-width:3px;}.cls-4{fill:#fff;}.cls-5{fill:#f34d26;}</style></defs><title>icon2</title><circle class="cls-1" cx="282.03" cy="169.15" r="169.15"/><rect class="cls-2" x="533.66" y="94.04" width="28.94" height="5.67"/><rect class="cls-2" x="507.56" y="94.04" width="17.47" height="5.67"/><circle class="cls-3" cx="546.54" cy="306.1" r="12.85"/><circle class="cls-3" cx="17.67" cy="22.04" r="12.85"/><rect class="cls-2" x="26.1" y="233.26" width="28.94" height="5.67"/><rect class="cls-2" y="233.26" width="17.47" height="5.67"/><path class="cls-4" d="M204.06,188.92s.39-5.18,14.89-7.21H327.2s9.8.4,10.5,12.64V279s.7,11.55-16.1,11.55H219.81s-17.5,1.75-17.5-13.12S204.06,188.92,204.06,188.92Z" transform="translate(-19.27 -36.68)"/><circle class="cls-4" cx="214.9" cy="115.21" r="30.47"/><circle class="cls-4" cx="288.37" cy="115.21" r="30.47"/><polygon class="cls-4" points="318.83 199.62 380.34 155.58 380.34 243.38 318.83 199.62"/><path class="cls-5" d="M325.3,292.91H215.82a15.54,15.54,0,0,1-15.53-15.51V195.19a15.53,15.53,0,0,1,15.53-15.51H325.3a15.53,15.53,0,0,1,15.51,15.51V277.4A15.53,15.53,0,0,1,325.3,292.91ZM215.82,185.08a10.13,10.13,0,0,0-10.12,10.11V277.4a10.13,10.13,0,0,0,10.12,10.11H325.3a10.13,10.13,0,0,0,10.11-10.11V195.19a10.13,10.13,0,0,0-10.11-10.11Z" transform="translate(-19.27 -36.68)"/><path class="cls-5" d="M399.62,283.66a2.71,2.71,0,0,1-1.59-.51l-61.51-44.69a2.71,2.71,0,0,1,0-4.37L398,189.43a2.75,2.75,0,0,1,2.82-.22,2.7,2.7,0,0,1,1.48,2.41V281a2.7,2.7,0,0,1-1.47,2.41A2.57,2.57,0,0,1,399.62,283.66Zm-56.91-47.38,54.21,39.37,0-78.72Z" transform="translate(-19.27 -36.68)"/><path class="cls-5" d="M233.46,185.08a33.17,33.17,0,1,1,33.17-33.17A33.21,33.21,0,0,1,233.46,185.08Zm0-60.93a27.77,27.77,0,1,0,27.76,27.76A27.79,27.79,0,0,0,233.46,124.15Z" transform="translate(-19.27 -36.68)"/><path class="cls-5" d="M307.64,185.08a33.17,33.17,0,1,1,33.17-33.17A33.21,33.21,0,0,1,307.64,185.08Zm0-60.93a27.77,27.77,0,1,0,27.77,27.76A27.79,27.79,0,0,0,307.64,124.15Z" transform="translate(-19.27 -36.68)"/><rect class="cls-2" x="197.56" y="236.35" width="94.23" height="5.25"/><rect class="cls-2" x="306.98" y="210.05" width="34.04" height="5.25" transform="translate(517.39 -148.01) rotate(90)"/></svg>