<svg id="Layer_1" data-name="Layer 1" xmlns="http://www.w3.org/2000/svg" viewBox="0 0 562.6 338.3"><defs><style>.cls-1{fill:#f9bfb5;}.cls-2{fill:#fc796b;}.cls-3,.cls-5{fill:#fff9fb;stroke:#fc796b;}.cls-3,.cls-4,.cls-5{stroke-miterlimit:10;}.cls-3{stroke-width:3px;}.cls-4,.cls-8{fill:#fff;}.cls-4{stroke:#f34d26;stroke-width:4px;}.cls-5{stroke-width:2px;}.cls-6{fill:none;}.cls-7{fill:#f3441c;}</style></defs><title>icon4</title><circle class="cls-1" cx="281.78" cy="169.15" r="169.15"/><rect class="cls-2" x="533.66" y="94.04" width="28.94" height="5.67"/><rect class="cls-2" x="507.56" y="94.04" width="17.47" height="5.67"/><circle class="cls-3" cx="546.54" cy="306.1" r="12.85"/><circle class="cls-3" cx="17.67" cy="22.04" r="12.85"/><rect class="cls-2" x="26.1" y="233.26" width="28.94" height="5.67"/><rect class="cls-2" y="233.26" width="17.47" height="5.67"/><rect class="cls-4" x="105.53" y="43.32" width="352.96" height="250.82" rx="5"/><circle class="cls-5" cx="126.04" cy="60.74" r="6.42"/><circle class="cls-5" cx="158.57" cy="60.74" r="6.42"/><circle class="cls-5" cx="191.3" cy="60.74" r="6.42"/><rect class="cls-6" x="105.53" y="43.32" width="352.96" height="250.82" rx="5"/><rect class="cls-6" x="105.53" y="73.96" width="352.96" height="6.81"/><rect class="cls-7" x="105.07" y="73.96" width="352.96" height="3.93"/><rect class="cls-7" x="123.41" y="216.75" width="219.61" height="4.21" transform="translate(432.79 -48.04) rotate(90)"/><rect class="cls-2" x="132.06" y="117.66" width="56.18" height="5.82"/><rect class="cls-2" x="132.06" y="140.64" width="56.18" height="5.82"/><rect class="cls-2" x="132.06" y="163.62" width="56.18" height="5.82"/><rect class="cls-2" x="132.06" y="185.9" width="56.18" height="5.82"/><rect class="cls-2" x="132.06" y="209.3" width="56.18" height="5.82"/><rect class="cls-2" x="132.06" y="232" width="56.18" height="5.82"/><rect class="cls-8" x="276.76" y="123.56" width="40.57" height="39.26"/><path class="cls-2" d="M402,157.42a13.35,13.35,0,0,0-11.73,19.7L368.42,199a17.69,17.69,0,0,0-21.78,0l-17.06-17.06a8.69,8.69,0,0,0,1.26-4.49,9,9,0,1,0-4.4,7.64l17.05,17.05a17.7,17.7,0,0,0,0,21.79l-28.16,28.16a13.19,13.19,0,1,0,2.78,3.51l28.53-28.53a17.66,17.66,0,0,0,8.67,3.6v22.6a13.35,13.35,0,1,0,4.45,0v-22.6a17.66,17.66,0,0,0,8.67-3.6l17.05,17.06a8.78,8.78,0,0,0-1.26,4.49,9,9,0,1,0,4.4-7.64l-17.05-17.05a17.69,17.69,0,0,0,0-21.78l21.49-21.5A13.33,13.33,0,1,0,402,157.42Z" transform="translate(-19.27 -33.68)"/></svg>