<svg id="Layer_1" data-name="Layer 1" xmlns="http://www.w3.org/2000/svg" viewBox="0 0 562.6 338.3"><defs><style>.cls-1{fill:#f9bfb5;}.cls-2{fill:#fc796b;}.cls-3,.cls-5{fill:#fff9fb;stroke:#fc796b;}.cls-3,.cls-4,.cls-5{stroke-miterlimit:10;}.cls-3{stroke-width:3px;}.cls-4,.cls-8{fill:#fff;}.cls-4{stroke:#f34d26;stroke-width:4px;}.cls-5{stroke-width:2px;}.cls-6{fill:none;}.cls-7{fill:#f3441c;}</style></defs><title>icon3</title><circle class="cls-1" cx="281.78" cy="169.15" r="169.15"/><rect class="cls-2" x="533.66" y="94.04" width="28.94" height="5.67"/><rect class="cls-2" x="507.56" y="94.04" width="17.47" height="5.67"/><circle class="cls-3" cx="546.54" cy="306.1" r="12.85"/><circle class="cls-3" cx="17.67" cy="22.04" r="12.85"/><rect class="cls-2" x="26.1" y="233.26" width="28.94" height="5.67"/><rect class="cls-2" y="233.26" width="17.47" height="5.67"/><rect class="cls-4" x="105.53" y="43.32" width="352.96" height="250.82" rx="5"/><circle class="cls-5" cx="126.04" cy="60.74" r="6.42"/><circle class="cls-5" cx="158.57" cy="60.74" r="6.42"/><circle class="cls-5" cx="191.3" cy="60.74" r="6.42"/><rect class="cls-6" x="105.53" y="43.32" width="352.96" height="250.82" rx="5"/><rect class="cls-6" x="105.53" y="73.96" width="352.96" height="6.81"/><rect class="cls-7" x="105.07" y="73.96" width="352.96" height="3.93"/><rect class="cls-7" x="123.41" y="216.75" width="219.61" height="4.21" transform="translate(432.79 -48.04) rotate(90)"/><rect class="cls-2" x="132.06" y="117.66" width="56.18" height="5.82"/><rect class="cls-2" x="132.06" y="140.64" width="56.18" height="5.82"/><rect class="cls-2" x="132.06" y="163.62" width="56.18" height="5.82"/><rect class="cls-2" x="132.06" y="185.9" width="56.18" height="5.82"/><rect class="cls-2" x="132.06" y="209.3" width="56.18" height="5.82"/><rect class="cls-2" x="132.06" y="232" width="56.18" height="5.82"/><rect class="cls-8" x="276.76" y="123.56" width="40.57" height="39.26"/><path class="cls-2" d="M383.1,206.72l-34.93,30.72-.14.12a6,6,0,0,0,4.22,10.19,6,6,0,0,0,4.35-1.88l30.71-34.94a3,3,0,0,0-4.21-4.21Z" transform="translate(-19.27 -33.68)"/><path class="cls-2" d="M352.25,170.17A71.58,71.58,0,0,0,284,263.58a3,3,0,0,0,2.84,2.08H417.61a3,3,0,0,0,2.85-2.08,71.61,71.61,0,0,0-68.21-93.41Zm56.69,74.6h8.74a65.37,65.37,0,0,1-2.28,14.92H289.1a64.84,64.84,0,0,1-2.29-14.92h8.74a3,3,0,1,0,0-6h-8.8A65.25,65.25,0,0,1,294,211.61l7.65,4.41a2.88,2.88,0,0,0,1.49.4,3,3,0,0,0,1.49-5.56L297,206.45a66.26,66.26,0,0,1,19.9-19.9l4.41,7.63a3,3,0,1,0,5.16-3l-4.41-7.65a65.25,65.25,0,0,1,27.19-7.26v8.8a3,3,0,1,0,6,0v-8.8a65.21,65.21,0,0,1,27.19,7.26L378,191.2a3,3,0,0,0,2.58,4.47,3,3,0,0,0,2.58-1.49l4.41-7.63a66.26,66.26,0,0,1,19.9,19.9l-7.63,4.41a3,3,0,0,0,1.5,5.56,2.9,2.9,0,0,0,1.49-.4l7.64-4.41a65.1,65.1,0,0,1,7.26,27.19h-8.8a3,3,0,0,0,0,6Z" transform="translate(-19.27 -33.68)"/></svg>