<svg xmlns="http://www.w3.org/2000/svg" viewBox="0 0 342.69 264.39"><defs><style>.cls-1{isolation:isolate;}.cls-2{opacity:0.19;}.cls-3{fill:#f96753;}.cls-4,.cls-41,.cls-7{fill:#fcc1bb;}.cls-5{fill:#fca70c;}.cls-6{fill:#eae6ff;}.cls-7{opacity:0.55;}.cls-12,.cls-14,.cls-16,.cls-20,.cls-21,.cls-34,.cls-7{mix-blend-mode:multiply;}.cls-8{fill:#f94230;}.cls-30,.cls-37,.cls-9{fill:none;}.cls-37,.cls-9{stroke:#f96753;stroke-miterlimit:10;}.cls-9{stroke-width:1.5px;}.cls-10,.cls-20,.cls-21{opacity:0.35;}.cls-11,.cls-39{fill:#fff;}.cls-12,.cls-34{opacity:0.25;}.cls-13{fill:#b1affd;}.cls-14{opacity:0.15;}.cls-15{opacity:0.26;}.cls-16{opacity:0.62;}.cls-17{fill:#d5dbda;}.cls-18{fill:#efefef;}.cls-19{fill:#cfcfff;}.cls-20{fill:#5851bc;}.cls-22{fill:#021735;}.cls-23{fill:#ffb9b0;}.cls-24{fill:#f9b253;}.cls-25{fill:#7762ef;}.cls-26{fill:#594a5f;}.cls-27{fill:#f2f2f2;}.cls-28{fill:#3a3a3a;}.cls-29{fill:#00215b;}.cls-30{stroke:#fcc1bb;stroke-linecap:round;stroke-linejoin:round;stroke-width:0.75px;}.cls-31{fill:#ed9c80;}.cls-32{fill:#38287c;}.cls-33{fill:#46394c;}.cls-34,.cls-36{fill:#ce4a30;}.cls-35{fill:#f74734;}.cls-37,.cls-39,.cls-40,.cls-41{opacity:0.45;}.cls-38{fill:#483a99;}.cls-42{fill:#f2a181;}.cls-43{fill:#5e5dbb;}.cls-44{fill:#b4b4db;}.cls-45{fill:#f29127;}.cls-46{fill:#170d54;}.cls-47{fill:#ffbe9d;}.cls-48{fill:#3b2e7a;}.cls-49{fill:#e9e6ff;}.cls-50{fill:#e0d9ff;}.cls-51{opacity:0.3;}.cls-52{fill:#fefefe;}</style></defs><title>product-bg</title><g class="cls-1"><g id="OBJECTS"><g class="cls-2"><path class="cls-3" d="M423.11,273.37c-5.93-16.53-15.27-21.56-24.15-32.17-10.85-12.95-18.16-22.36-15.34-39,4.6-27.21,6.57-95.1-65.49-86.22-25.83,3.18-46.24,23-61.08,42.73C244.41,175.5,221.69,177,203.39,180.9,180.92,185.71,158,193,137.23,203.65c-42.83,21.95-55.62,53.5-53.87,93.87.53,12.2,2.25,31.42,22.86,53.9,27.81,30.34,68.22,34.41,116.86,20.47,11.14-3.19,21.66-8.19,32.61-12a154.18,154.18,0,0,1,35.2-7.64c27.93-2.7,56.89,2.18,83.69-6.16A88.33,88.33,0,0,0,412,322.92C424.81,309.51,429.37,290.82,423.11,273.37Z" transform="translate(-83.21 -115.16)"/></g><path class="cls-4" d="M106.22,335.65c0,4,50.6,7.22,113,7.22s113-3.24,113-7.22-50.6-7.23-113-7.23S106.22,331.66,106.22,335.65Z" transform="translate(-83.21 -115.16)"/><path class="cls-4" d="M175.18,344.56c0,2.5-12.84,4.52-28.69,4.52s-28.69-2-28.69-4.52S130.65,340,146.49,340,175.18,342.07,175.18,344.56Z" transform="translate(-83.21 -115.16)"/><ellipse class="cls-4" cx="282.83" cy="230.34" rx="48.14" ry="3.58"/><polygon class="cls-5" points="34.3 170.88 32.45 196.76 57.14 196.76 55.44 170.83 34.3 170.88"/><path class="cls-6" d="M122.4,288.32h0a.79.79,0,0,1,.85-.72h0a.8.8,0,0,1,.85.71.79.79,0,0,1-.85.72h0A.79.79,0,0,1,122.4,288.32Zm.85-.45a.53.53,0,0,0-.58.44.53.53,0,0,0,.58.45h0a.52.52,0,0,0,.57-.45.52.52,0,0,0-.57-.44Zm-.72.45h0Z" transform="translate(-83.21 -115.16)"/><path class="cls-6" d="M130.82,288.3h0a.67.67,0,0,1,.2-.47.9.9,0,0,1,.64-.25h0a.79.79,0,0,1,.84.71.68.68,0,0,1-.25.52.94.94,0,0,1-.59.2h0A.79.79,0,0,1,130.82,288.3Zm.85-.45a.66.66,0,0,0-.46.18.38.38,0,0,0-.12.27h0a.53.53,0,0,0,.58.44h0a.64.64,0,0,0,.41-.14.38.38,0,0,0,.16-.31.52.52,0,0,0-.57-.44Z" transform="translate(-83.21 -115.16)"/><path class="cls-6" d="M127.21,293.52h.24A4.54,4.54,0,0,0,131,292a5.29,5.29,0,0,0,1-3.78.28.28,0,0,0-.31-.24.27.27,0,0,0-.23.31,4.79,4.79,0,0,1-.87,3.36,4,4,0,0,1-3.1,1.28,3.66,3.66,0,0,1-3-1.05,5,5,0,0,1-.91-3.57.27.27,0,0,0-.54-.08,5.42,5.42,0,0,0,1,4A4.06,4.06,0,0,0,127.21,293.52Z" transform="translate(-83.21 -115.16)"/><polygon class="cls-7" points="45.91 178.13 42.96 197.38 69.77 197.32 67.06 178.08 45.91 178.13"/><path class="cls-8" d="M119.19,325.8a5.44,5.44,0,1,0,5.43,5.43A5.43,5.43,0,0,0,119.19,325.8Zm0,8a2.53,2.53,0,1,1,2.53-2.53A2.53,2.53,0,0,1,119.19,333.76Z" transform="translate(-83.21 -115.16)"/><path class="cls-3" d="M118.29,325.8a5.44,5.44,0,1,0,5.44,5.43A5.44,5.44,0,0,0,118.29,325.8Zm0,8a2.53,2.53,0,1,1,2.54-2.53A2.52,2.52,0,0,1,118.29,333.76Z" transform="translate(-83.21 -115.16)"/><path class="cls-8" d="M149.91,325.8a5.44,5.44,0,1,0,5.44,5.43A5.44,5.44,0,0,0,149.91,325.8Zm0,8a2.53,2.53,0,1,1,2.54-2.53A2.52,2.52,0,0,1,149.91,333.76Z" transform="translate(-83.21 -115.16)"/><path class="cls-3" d="M149,325.8a5.44,5.44,0,1,0,5.44,5.43A5.43,5.43,0,0,0,149,325.8Zm0,8a2.53,2.53,0,1,1,2.53-2.53A2.53,2.53,0,0,1,149,333.76Z" transform="translate(-83.21 -115.16)"/><path class="cls-9" d="M191,264.75H174.61a5,5,0,0,0-4.22,2.35L160.51,283" transform="translate(-83.21 -115.16)"/><path class="cls-9" d="M116.61,312.1h36.52a4,4,0,0,0,3.9-3.33l3.78-23.57a4,4,0,0,0-3.91-4.58H112.83a4,4,0,0,0-3.9,4.58l3.77,23.57A4,4,0,0,0,116.61,312.1Z" transform="translate(-83.21 -115.16)"/><line class="cls-9" x1="51.66" y1="165.45" x2="51.66" y2="196.94"/><line class="cls-9" x1="75.82" y1="181.2" x2="27.51" y2="181.2"/><line class="cls-9" x1="66.08" y1="165.45" x2="62.96" y2="196.94"/><line class="cls-9" x1="37.96" y1="165.45" x2="40.85" y2="196.94"/><path class="cls-9" d="M156.17,310.67l5.92,8.8a3.6,3.6,0,0,1-3,5.61H110.71" transform="translate(-83.21 -115.16)"/><rect class="cls-8" x="150.03" y="199.68" width="50.09" height="13.47"/><rect class="cls-3" x="88.52" y="79.16" width="173.64" height="124.92" rx="9.39"/><rect class="cls-4" x="93.37" y="83.72" width="163.41" height="108.38" rx="5.77"/><path class="cls-3" d="M135.82,212h78.5a7.32,7.32,0,0,1,7.32,7.32v1.17a0,0,0,0,1,0,0H128.5a0,0,0,0,1,0,0v-1.17A7.32,7.32,0,0,1,135.82,212Z"/><g class="cls-10"><rect class="cls-11" x="132.39" y="91.2" width="114.34" height="76.85" rx="5.01"/></g><g class="cls-12"><rect class="cls-5" x="143.26" y="147.35" width="4.98" height="12.5"/><rect class="cls-13" x="154.48" y="136.37" width="4.98" height="23.48"/><rect class="cls-5" x="165.71" y="138.8" width="4.98" height="21.05"/><rect class="cls-13" x="176.93" y="126.91" width="4.98" height="32.94"/><g class="cls-14"><rect class="cls-15" x="154.48" y="136.37" width="2.29" height="23.48"/></g><g class="cls-14"><rect class="cls-15" x="143.26" y="147.35" width="2.29" height="12.5"/></g><g class="cls-16"><rect class="cls-15" x="176.93" y="126.91" width="2.29" height="32.94"/></g><g class="cls-14"><rect class="cls-15" x="165.71" y="138.8" width="2.29" height="21.05"/></g><polygon class="cls-17" points="184.55 163.29 139.97 163.29 139.97 115.83 140.65 115.83 140.65 162.61 184.55 162.61 184.55 163.29"/><polygon class="cls-17" points="144.55 141.49 144.1 140.98 155.76 130.51 166.56 132.86 178.25 119.84 178.76 120.3 166.8 133.61 155.95 131.25 144.55 141.49"/><polygon class="cls-17" points="179.67 122.22 176.38 119.06 180.63 117.92 179.67 122.22"/><rect class="cls-13" x="188.77" y="146.46" width="3.42" height="3.42"/><rect class="cls-5" x="188.77" y="152.45" width="3.42" height="3.42"/><rect class="cls-18" x="193.13" y="153.93" width="10.84" height="1.94"/><rect class="cls-18" x="193.13" y="147.94" width="10.84" height="1.94"/><rect class="cls-13" x="208.88" y="146.46" width="3.42" height="3.42"/><rect class="cls-5" x="208.88" y="152.45" width="3.42" height="3.42"/><rect class="cls-18" x="213.24" y="153.93" width="10.84" height="1.94"/><rect class="cls-18" x="213.24" y="147.94" width="10.84" height="1.94"/><rect class="cls-3" x="226.99" y="146.46" width="3.42" height="3.42"/><rect class="cls-5" x="226.99" y="152.45" width="3.42" height="3.42"/><rect class="cls-18" x="231.36" y="153.93" width="7.13" height="1.94"/><rect class="cls-18" x="231.36" y="147.94" width="7.13" height="1.94"/><rect class="cls-18" x="189.41" y="113.78" width="49.08" height="0.89"/><rect class="cls-18" x="139.97" y="102.83" width="98.52" height="2.04"/><rect class="cls-18" x="189.26" y="116.55" width="49.23" height="0.89"/><rect class="cls-18" x="189.26" y="111" width="49.23" height="0.89"/><rect class="cls-18" x="189.26" y="119.33" width="49.23" height="0.89"/><rect class="cls-18" x="189.26" y="122.11" width="49.23" height="0.89"/><rect class="cls-18" x="189.26" y="124.88" width="49.23" height="0.89"/><rect class="cls-18" x="189.26" y="127.66" width="49.23" height="0.89"/><rect class="cls-18" x="189.26" y="130.43" width="49.23" height="0.89"/><rect class="cls-18" x="189.26" y="133.21" width="49.23" height="0.89"/><rect class="cls-18" x="195.29" y="135.98" width="43.2" height="0.89"/><path class="cls-3" d="M324.93,206.37H220.61a5,5,0,0,0-5,5v4.38H329.94v-4.38A5,5,0,0,0,324.93,206.37Z" transform="translate(-83.21 -115.16)"/><path class="cls-19" d="M315.23,211.24a1.45,1.45,0,1,1-1.44-1.45A1.44,1.44,0,0,1,315.23,211.24Z" transform="translate(-83.21 -115.16)"/><circle class="cls-19" cx="236.47" cy="96.07" r="1.44"/><circle class="cls-19" cx="242.36" cy="96.07" r="1.44"/></g><rect class="cls-7" x="102.02" y="108.2" width="114.34" height="76.85" rx="5.01"/><rect class="cls-11" x="104.34" y="105.21" width="114.34" height="76.85" rx="5.01"/><rect class="cls-5" x="115.21" y="161.35" width="4.98" height="12.5"/><rect class="cls-13" x="126.43" y="150.38" width="4.98" height="23.48"/><rect class="cls-5" x="137.65" y="152.8" width="4.98" height="21.05"/><rect class="cls-13" x="148.88" y="140.92" width="4.98" height="32.94"/><g class="cls-14"><rect class="cls-15" x="126.43" y="150.38" width="2.29" height="23.48"/></g><g class="cls-14"><rect class="cls-15" x="115.21" y="161.35" width="2.29" height="12.5"/></g><g class="cls-16"><rect class="cls-15" x="148.88" y="140.92" width="2.29" height="32.94"/></g><g class="cls-14"><rect class="cls-15" x="137.65" y="152.8" width="2.29" height="21.05"/></g><polygon class="cls-17" points="156.49 177.3 111.92 177.3 111.92 134.07 112.6 134.07 112.6 176.62 156.49 176.62 156.49 177.3"/><polygon class="cls-17" points="116.5 155.5 116.04 154.99 127.7 144.52 138.5 146.87 150.2 133.85 150.71 134.3 138.75 147.62 127.9 145.26 116.5 155.5"/><polygon class="cls-17" points="151.62 136.23 148.32 133.06 152.58 131.93 151.62 136.23"/><rect class="cls-3" x="160.71" y="160.47" width="3.42" height="3.42"/><rect class="cls-5" x="160.71" y="166.46" width="3.42" height="3.42"/><rect class="cls-18" x="165.08" y="167.94" width="10.84" height="1.94"/><rect class="cls-18" x="165.08" y="161.94" width="10.84" height="1.94"/><rect class="cls-3" x="180.83" y="160.47" width="3.42" height="3.42"/><rect class="cls-5" x="180.83" y="166.46" width="3.42" height="3.42"/><rect class="cls-18" x="185.19" y="167.94" width="10.84" height="1.94"/><rect class="cls-18" x="185.19" y="161.94" width="10.84" height="1.94"/><rect class="cls-3" x="198.94" y="160.47" width="3.42" height="3.42"/><rect class="cls-5" x="198.94" y="166.46" width="3.42" height="3.42"/><rect class="cls-18" x="203.3" y="167.94" width="7.13" height="1.94"/><rect class="cls-18" x="203.3" y="161.94" width="7.13" height="1.94"/><rect class="cls-18" x="161.35" y="127.79" width="49.08" height="0.89"/><rect class="cls-18" x="111.92" y="116.83" width="98.52" height="2.04"/><rect class="cls-18" x="161.21" y="130.56" width="49.23" height="0.89"/><rect class="cls-18" x="161.21" y="125.01" width="49.23" height="0.89"/><rect class="cls-18" x="161.21" y="133.34" width="49.23" height="0.89"/><rect class="cls-18" x="161.21" y="136.11" width="49.23" height="0.89"/><rect class="cls-18" x="161.21" y="138.89" width="49.23" height="0.89"/><rect class="cls-18" x="161.21" y="141.66" width="49.23" height="0.89"/><rect class="cls-18" x="161.21" y="144.44" width="49.23" height="0.89"/><rect class="cls-18" x="161.21" y="147.21" width="49.23" height="0.89"/><rect class="cls-18" x="167.23" y="149.99" width="43.2" height="0.89"/><path class="cls-3" d="M296.87,220.38H192.56a5,5,0,0,0-5,5v4.38H301.88v-4.38A5,5,0,0,0,296.87,220.38Z" transform="translate(-83.21 -115.16)"/><path class="cls-8" d="M287.18,225.24a1.45,1.45,0,1,1-1.45-1.44A1.45,1.45,0,0,1,287.18,225.24Z" transform="translate(-83.21 -115.16)"/><path class="cls-8" d="M293.07,225.24a1.45,1.45,0,1,1-1.45-1.44A1.45,1.45,0,0,1,293.07,225.24Z" transform="translate(-83.21 -115.16)"/><path class="cls-8" d="M299,225.24a1.45,1.45,0,1,1-1.44-1.44A1.44,1.44,0,0,1,299,225.24Z" transform="translate(-83.21 -115.16)"/><path class="cls-20" d="M335.46,194.42H308.69q.27,13,.44,26a10.37,10.37,0,0,1-.48,3.93h0c-.36,0-.2.09-.32.72v0a8,8,0,0,1-5.25,3.19.56.56,0,0,0,0,.29.66.66,0,0,0-.21.81c.13.29,1.67.68,3.76.46a10,10,0,0,0,2.32-.65,3.54,3.54,0,0,0,.85-.58,2.87,2.87,0,0,0,.78-.19l.09.08,2.39-1s-.26-1.51-.47-2.3a1.42,1.42,0,0,0-.15-.37,111.13,111.13,0,0,0,4.7-16.71c-.44,7.06-3,21.38-3.16,21.88a3.68,3.68,0,0,1-3,2.13c-.56.05-3.35-.11-3.05,1.17.07.31,1.52,1,3.62,1.1a9.6,9.6,0,0,0,2.39-.23,4.34,4.34,0,0,0,1.49-.81l.33.43,2.54-.61s0-.66,0-1.46a3.3,3.3,0,0,0-.55-1.55l0-1.44,1.41-.17s2.82-9.15,4.17-12.26a27.5,27.5,0,0,0,1.52-3.89,28.52,28.52,0,0,0,.58-4.88,43.08,43.08,0,0,1,1.64-8.8,1.24,1.24,0,0,1,.24-.52,1.34,1.34,0,0,1,.92-.32c3.6-.33,5.25.28,7.5-.42,3-.92,3.29-2.26,3.43-2.33A9.4,9.4,0,0,0,335.46,194.42Z" transform="translate(-83.21 -115.16)"/><g class="cls-21"><path class="cls-3" d="M345.36,254.35v-31c-4.63,6.06-9.21,11.49-13.84,17.55-2,2.63-9.88,11.34-4.51,14.84,1.37.89,3.75.85,4.94.93,4.29.31,8.53-.88,12.69-2.05Z" transform="translate(-83.21 -115.16)"/></g><path class="cls-20" d="M345.36,261l-2.58.19,0-.14-2,.15-.6-1.7a2.6,2.6,0,0,0-2.53-1.61,1.38,1.38,0,0,0-1.28,1.92l.59,1.69-2.11.16.05.15-4.35.34c-.69,0-1.7.89-1.48,1.51l0,.09a1,1,0,0,0,0,.16l3.76,10.61-.09,44.7h4.36l8.26-32.11Zm-6.78-.34a1.44,1.44,0,0,1-1.42-.9.77.77,0,0,1,.72-1.07,1.45,1.45,0,0,1,1.42.9A.77.77,0,0,1,338.58,260.69Z" transform="translate(-83.21 -115.16)"/><path class="cls-20" d="M182.64,242.61a21.62,21.62,0,0,0-2.58,4.33,4.32,4.32,0,0,1-2.41,2.17c-1.91.87-4,1.71-5.92,2.48v5.07c4-2.4,7.62-4.65,7.68-4.67,3.05,1.17,5.61-1.37,6.43-3.21.37-.82-.18-1.16-.21-1.55,0-.2.25-1.39.21-1.54-.24-1.07-3.11-.14-2.87-.65a3.61,3.61,0,0,1,1.19-1.79c1.41-1,2.49-2,2.49-2.43C186.65,240.12,183,242.24,182.64,242.61Z" transform="translate(-83.21 -115.16)"/><rect class="cls-4" x="254.34" y="153.22" width="67.51" height="78.07" rx="6.95"/><rect class="cls-8" x="260.58" y="161.39" width="57.09" height="16.04" rx="1.77"/><rect class="cls-8" x="260.58" y="183.11" width="14.68" height="10.18" rx="1.77"/><rect class="cls-8" x="281.79" y="183.11" width="14.68" height="10.18" rx="1.77"/><rect class="cls-8" x="303" y="183.11" width="14.68" height="10.18" rx="1.77"/><rect class="cls-8" x="260.58" y="199.47" width="14.68" height="10.18" rx="1.77"/><rect class="cls-8" x="281.79" y="199.47" width="14.68" height="10.18" rx="1.77"/><rect class="cls-8" x="260.58" y="215.84" width="14.68" height="10.18" rx="1.77"/><rect class="cls-8" x="281.79" y="215.84" width="14.68" height="10.18" rx="1.77"/><rect class="cls-8" x="303" y="199.47" width="14.68" height="26.54" rx="1.77"/><path class="cls-3" d="M342.75,277.29a1.78,1.78,0,0,1,1.78-1.78h53.54a1.78,1.78,0,0,1,1.78,1.78v12.49a1.78,1.78,0,0,1-1.78,1.77H344.53" transform="translate(-83.21 -115.16)"/><rect class="cls-3" x="259.55" y="182.07" width="14.68" height="10.18" rx="1.77"/><rect class="cls-3" x="280.75" y="182.07" width="14.68" height="10.18" rx="1.77"/><rect class="cls-3" x="301.96" y="182.07" width="14.68" height="10.18" rx="1.77"/><rect class="cls-3" x="259.55" y="198.43" width="14.68" height="10.18" rx="1.77"/><rect class="cls-3" x="280.75" y="198.43" width="14.68" height="10.18" rx="1.77"/><rect class="cls-3" x="259.55" y="214.8" width="14.68" height="10.18" rx="1.77"/><rect class="cls-3" x="280.75" y="214.8" width="14.68" height="10.18" rx="1.77"/><rect class="cls-3" x="301.96" y="198.43" width="14.68" height="26.54" rx="1.77"/><path class="cls-8" d="M386.2,339.41v-23a1.78,1.78,0,0,1,1.78-1.77h11.13a1.8,1.8,0,0,1,.62.11,1.77,1.77,0,0,0-1.66-1.15H386.94a1.77,1.77,0,0,0-1.77,1.77v23a1.76,1.76,0,0,0,1.15,1.65A1.79,1.79,0,0,1,386.2,339.41Z" transform="translate(-83.21 -115.16)"/><path class="cls-20" d="M337.54,286.79l1.81,4.76h7.57s-.52,20.58-.56,24.43,3.18,30.47,3.18,30.47h4.38l-.46-33.55,6.22-17.21s4.67,23,6.61,26.9,12.35,23.86,12.35,23.86h4l-10.32-44.12L367.91,287l-22.35-10.44-8,.79" transform="translate(-83.21 -115.16)"/><polygon class="cls-5" points="103.18 188.72 99.66 225.27 134.31 225.27 130.96 188.66 103.18 188.72"/><path class="cls-3" d="M192.43,307.23h0a1.22,1.22,0,0,1,1.3-1.1h0a1.12,1.12,0,1,1,0,2.2h0A1.22,1.22,0,0,1,192.43,307.23Zm1.3-.68a.7.7,0,1,0,0,1.36h0a.7.7,0,1,0,0-1.36Zm-1.09.68Z" transform="translate(-83.21 -115.16)"/><path class="cls-3" d="M205.35,307.2h0a1,1,0,0,1,.3-.71,1.4,1.4,0,0,1,1-.39h0a1.22,1.22,0,0,1,1.3,1.1,1,1,0,0,1-.4.79,1.4,1.4,0,0,1-.9.31h0A1.21,1.21,0,0,1,205.35,307.2Zm1.3-.68a1,1,0,0,0-.7.27.58.58,0,0,0-.18.41h0a.8.8,0,0,0,.88.68h0a1,1,0,0,0,.64-.22.6.6,0,0,0,.24-.46.8.8,0,0,0-.88-.68Z" transform="translate(-83.21 -115.16)"/><path class="cls-8" d="M199.81,315.22h.37a7,7,0,0,0,5.38-2.27,8.06,8.06,0,0,0,1.51-5.8.43.43,0,0,0-.48-.36.42.42,0,0,0-.35.48,7.38,7.38,0,0,1-1.33,5.15,6.2,6.2,0,0,1-4.76,2,5.65,5.65,0,0,1-4.61-1.6c-1.85-2.06-1.39-5.45-1.39-5.48a.43.43,0,0,0-.36-.48.42.42,0,0,0-.47.36c0,.15-.52,3.8,1.59,6.15A6.27,6.27,0,0,0,199.81,315.22Z" transform="translate(-83.21 -115.16)"/><path class="cls-22" d="M152.32,221.53c1.34,2.32.18,5.48,1.53,7.79.54.93,1.46,1.65,1.72,2.69a2.34,2.34,0,0,1-3.37,2.64,2.76,2.76,0,0,0-.52-.25c-.67-.2-1.28.39-1.85.79a2.85,2.85,0,0,1-2.44.43,3.64,3.64,0,0,1-2-2.44c-1-2.9-.28-6.09.62-9,.45-1.46,1.11-3.08,2.54-3.61" transform="translate(-83.21 -115.16)"/><path class="cls-23" d="M183.47,246.17c0,.33.51.6.19,1.28-.73,1.51-3,3.61-5.72,2.65-.11,0-15,8.64-16.13,8.64s-9-7.39-11.51-16.53c-.61-2.18-.37-4.75,1.67-5.85a4.83,4.83,0,0,1,2.81,2.5c1.69,3.19,6.76,13.76,7.88,14.16,1.4-.93,8.21-3,13.72-5.3a3.76,3.76,0,0,0,2.14-1.79,18,18,0,0,1,2.29-3.57c.3-.3,3.56-2.05,3.56-1.48,0,.34-1,1.22-2.2,2a3,3,0,0,0-1.07,1.48c-.21.42,2.34-.35,2.56.53C183.69,245,183.46,246,183.47,246.17Z" transform="translate(-83.21 -115.16)"/><path class="cls-24" d="M151.38,236.09a6.7,6.7,0,0,1,4.44,3.44,14.2,14.2,0,0,1,.6,1.39c.8,2,1.89,3.84,2.68,5.86a12.05,12.05,0,0,1-3.5,1.68,7.38,7.38,0,0,1-3.26.44,1.69,1.69,0,0,1-.54-.12,1.79,1.79,0,0,1-.57-.49c-.34-.39-.67-.79-1-1.19a3.3,3.3,0,0,1-.67-1.14,3.36,3.36,0,0,1,.16-1.77" transform="translate(-83.21 -115.16)"/><g class="cls-21"><path class="cls-25" d="M153.32,241.59a.72.72,0,0,0-.25-.21.47.47,0,0,0-.54.23,1.33,1.33,0,0,0-.11.63,8.6,8.6,0,0,0,.38,2.41l-.25,4.25h0a7.52,7.52,0,0,0,3-.45c.46-.17,1-.34,1.46-.55C156.55,245.52,154.91,243.49,153.32,241.59Z" transform="translate(-83.21 -115.16)"/></g><path class="cls-23" d="M146.73,231.87s-.06,2.66.35,2.83a10.31,10.31,0,0,0,1.72.54l0,5.5-7.34-1.1-5.06-2.81s5.25-1.75,5.3-2.27-.29-3.47-.29-3.47" transform="translate(-83.21 -115.16)"/><path class="cls-23" d="M135.45,311.57v0c-2,9.53-1.05,22.62-1.5,29.79.11,0,2.73.36,2.73.36s6.22-30.23,7.35-36a10.67,10.67,0,0,0,.14-1.12c.27-4.36-3.66-4.58-5.87-1a16.15,16.15,0,0,0-1,1.95c-.13.28-.24.57-.36.87h0a28.75,28.75,0,0,0-1,3.05l0,.11c-.09.3-.17.61-.24.92l0,.07Z" transform="translate(-83.21 -115.16)"/><path class="cls-23" d="M147.21,277.38c-.07.79-.49,4.54-1,9-.43,3.72-.9,7.91-1.27,11.23-.27,2.49-.47,4.48-.55,5.41a12.73,12.73,0,0,1-.23,1.61v0c-.94,4.35-3.95,4.6-5.77,3.59a3.17,3.17,0,0,1-.7-.47,2.38,2.38,0,0,1-.78-1.28h0c-.11-.9-.23-2.11-.33-3.56v0s0,0,0,0v0c-.22-2.82-.41-6.46-.58-10-.2-4.35-.33-8.55-.36-10.91,0-.14,0-.26,0-.39,0-7.25,6.63-11.89,10.77-9.64l.15.07.16.09c.47.32.63,1.4.64,2.64A26.32,26.32,0,0,1,147.21,277.38Z" transform="translate(-83.21 -115.16)"/><path class="cls-23" d="M137.07,304.74l-.5-1.9s0,0,0,0a30.53,30.53,0,0,1-.63,6.64l0,.11c-.07.3-.15.61-.24.92l0,.07a4.7,4.7,0,0,0-.21,1v0c0,.86,1.83-3,2.25-3.85a1.16,1.16,0,0,1,.09-.18l-.5-2Z" transform="translate(-83.21 -115.16)"/><path class="cls-23" d="M151.43,313.39v0c-.19,10,2.89,21.71,3.7,28.95.1,0,2.52-.32,2.52-.32s.46-30.56.49-36.6a10,10,0,0,0-.06-1.15c-.5-4.4-4.06-3.64-5.44.49a16.47,16.47,0,0,0-.58,2.18c-.07.32-.12.63-.18,1h0a31.86,31.86,0,0,0-.36,3.26v.12c0,.32-.05.65-.06,1v.07C151.44,312.71,151.43,313,151.43,313.39Z" transform="translate(-83.21 -115.16)"/><path class="cls-23" d="M153.5,309.32a2.32,2.32,0,0,1-.7-.3,2,2,0,0,1-.92-1.08h0c-.26-.86-.57-2.06-.92-3.48,0,0,0,0,0,0l0,0c-.67-2.75-1.47-6.32-2.22-9.79-.91-4.28-1.74-8.42-2.17-10.77,0-.13-.4-1.84-.42-2-1.28-7.28,4.4-12,8.53-10.64l.16.06c.83.33,1.06,3.25,1.25,5.22s1.59,22.44,1.94,26.14a13.49,13.49,0,0,1,.07,1.65C158,308.87,155.32,309.87,153.5,309.32Z" transform="translate(-83.21 -115.16)"/><path class="cls-23" d="M151.73,306.19l-.78-1.76v0a34.05,34.05,0,0,1,.56,6.75v.12c0,.31,0,.65-.06,1v.07a5.45,5.45,0,0,0,0,1v0c.14.86,1.14-3.4,1.36-4.39,0-.13.05-.2.05-.2l-.78-1.86Z" transform="translate(-83.21 -115.16)"/><path class="cls-26" d="M139.07,263.39s-5.35,6.79-4.8,13.62c.23,2.84.58,5.34.9,8.2.05.41.69,6.42.51,6.42,0,0,11,3.41,21.67-1.05,0-.73.85-14.7-4.9-28A93.57,93.57,0,0,1,139.07,263.39Z" transform="translate(-83.21 -115.16)"/><path class="cls-24" d="M155.82,247.7c0,2-1.08,3.13-2.57,4.77a58.49,58.49,0,0,0-.8,7.52c-.08,1.5.56,2.44,0,2.56-2.14,1.87-9.84,3.38-13.38.83.37-3.13-1-10-2-13.56-.15-.54-.28-1-.4-1.35-.88-2.67-2.47-11.23-1.29-11.6l1-.3c1.85-.56,4.57-1.51,4.57-1.51s1.61,4.73,5.77,5.31c2.27-.94,2.07-3.81,2-5.13.75.2,1.07.41,3.38,1.09.64.93.08,2.87,1.13,5.77C153.57,242.82,155.87,245.33,155.82,247.7Z" transform="translate(-83.21 -115.16)"/><path class="cls-23" d="M152.05,221s.42,5.14-.46,7.84a6.41,6.41,0,0,1-5.55,3.84c-6.15,0-7.25-8.35-7.22-8.75s9.06-3.91,9.06-3.91Z" transform="translate(-83.21 -115.16)"/><path class="cls-27" d="M152.69,271.75" transform="translate(-83.21 -115.16)"/><path class="cls-28" d="M163.74,345.25c-2.18.39-4.52-.22-5.48-.06-.79.14-2.82.65-3.59,0s-.63-3.1.24-3.42a3,3,0,0,0,.57.14,6,6,0,0,0,2.59-.22,13.44,13.44,0,0,0,3.61,1.37,12.24,12.24,0,0,1,2.41.73C164.91,344.13,165,345,163.74,345.25Z" transform="translate(-83.21 -115.16)"/><path class="cls-28" d="M140.14,346.21c-2.19-.37-3.58-1.58-4.54-1.75-.79-.14-2.78-.53-3-1.34-.16-.61.44-3.14,1.38-3.14a3.1,3.1,0,0,0,.48.32A5.94,5.94,0,0,0,137,341a13.68,13.68,0,0,0,3,2.51,13.42,13.42,0,0,1,2,1.5C142.59,345.61,141.37,346.42,140.14,346.21Z" transform="translate(-83.21 -115.16)"/><path class="cls-23" d="M108.21,244l2-2.39,12.27,11s6-8,7.65-10.47c1.81-2.74,3.44-5.08,6.09-5.54.61.38-.2,10.22-.52,10.46-3.7,2.77-10.91,11.71-13.2,12.17C119.86,259.77,108.21,244,108.21,244Z" transform="translate(-83.21 -115.16)"/><path class="cls-24" d="M137.14,236.17s-2.51,0-3.59.92-6.23,9-6.23,9a3.63,3.63,0,0,0,1.36,2.84,7.58,7.58,0,0,0,3.71,1.61s2.59-2.58,4-3.75c.91-.73,1,1.08,1,1.08l4.56-4.46Z" transform="translate(-83.21 -115.16)"/><path class="cls-29" d="M135.63,236.27l-.41-.23a3.35,3.35,0,0,1-1.64-1.66,5.53,5.53,0,0,1,0-4,16.31,16.31,0,0,1,1.69-1.94,5.94,5.94,0,0,0,1-3.36,22,22,0,0,1,.24-3.54c.43-2,1-3.87,2.52-5.15,2.45-2,7.35-3.26,10-1,.48.42.58.75,1.24.82a4.72,4.72,0,0,1,2.23.65c.88.51,1.94,1.22,1.82,2.37a4.17,4.17,0,0,1-1.67,2.43,2.19,2.19,0,0,1-.94.21c-1,0-1.91-.66-2.93-.55a1.93,1.93,0,0,0-1.28.71c-.37.45-.32,1.09-.75,1.51-.68.68-1.75.63-2.57,1.07a.9.9,0,0,0-.35.29.94.94,0,0,0-.09.44l-.05,1.28c-.4-.17-.44-.75-.78-1a.93.93,0,0,0-1.17.08,1.91,1.91,0,0,0-.56,1.12,3.21,3.21,0,0,0,.23,1.54c.26.87,1,1.66,1.62,1.08.44.65,0,1.73-.06,2.46,0,.58,0,1.73.54,2.11s1.29.09,1.32,1a1.73,1.73,0,0,1-1.62,1.57,6.15,6.15,0,0,1-2.42-.42,3.77,3.77,0,0,0-2.43-.12,7.26,7.26,0,0,1-1.37.61A2.12,2.12,0,0,1,135.63,236.27Z" transform="translate(-83.21 -115.16)"/><path class="cls-23" d="M113.32,244.42s-2.89-2.31-3.08-2.94-.24-1.31-.48-1.93a3.59,3.59,0,0,0-2-2c-.73-.3-.37-.55-1.15-.4-1.17.23-1.72,1.38-2.19,2.27-2,3.82,3.47,4.54,3.66,4.55.4,0,2.43,2.32,2.43,2.32" transform="translate(-83.21 -115.16)"/><path class="cls-3" d="M104.21,242.58l2,1.32a.55.55,0,0,0,.77-.17l4.34-7.28L108.72,235l-4.66,6.82A.54.54,0,0,0,104.21,242.58Z" transform="translate(-83.21 -115.16)"/><path class="cls-7" d="M97.15,227.15l.68.46,2.75-4-.68-.46a2.3,2.3,0,0,0-3.13.81h0A2.28,2.28,0,0,0,97.15,227.15Z" transform="translate(-83.21 -115.16)"/><polygon class="cls-7" points="11.43 116.87 24.08 118.79 26.96 114.58 20.58 103.52 11.43 116.87"/><polygon class="cls-3" points="12.23 117.04 24.08 118.79 25.23 117.11 15.26 112.63 12.23 117.04"/><path class="cls-3" d="M112.48,237h0a1.61,1.61,0,0,0,2.19-.56l.51-.75a1.59,1.59,0,0,0-.26-2.24h0a1.61,1.61,0,0,0-2.19.57l-.51.75A1.6,1.6,0,0,0,112.48,237Z" transform="translate(-83.21 -115.16)"/><path class="cls-3" d="M112.73,234l-.51.75a1.6,1.6,0,0,0,.26,2.23,1.61,1.61,0,0,0,2.19-.56l.51-.75a1.74,1.74,0,0,0,.11-.18,1.47,1.47,0,1,1-2.43-1.65S112.77,234,112.73,234Z" transform="translate(-83.21 -115.16)"/><path class="cls-3" d="M94.22,232.45h0a.94.94,0,0,0,1.28-.34l8.68-12.64a1,1,0,0,0-.15-1.32h0a1,1,0,0,0-1.29.34l-8.68,12.64A1,1,0,0,0,94.22,232.45Z" transform="translate(-83.21 -115.16)"/><path class="cls-8" d="M104.25,218.4,97,228.93a.94.94,0,0,1-1.28.33.63.63,0,0,1-.22-.24l-1.46,2.11a.88.88,0,1,0,1.44,1l8.68-12.64A1,1,0,0,0,104.25,218.4Z" transform="translate(-83.21 -115.16)"/><path class="cls-3" d="M108.4,236.16l.82.56a2.86,2.86,0,0,0,3.9-1l.82-1.18a2.86,2.86,0,0,0-.48-4l-.81-.55a2.86,2.86,0,0,0-3.91,1l-.81,1.18A2.84,2.84,0,0,0,108.4,236.16Z" transform="translate(-83.21 -115.16)"/><path class="cls-8" d="M108,232.11l-1.22,1.77a.92.92,0,0,0,.15,1.27l3.81,2.59a.91.91,0,0,0,1.24-.32l1.22-1.77a.92.92,0,0,1-1.24.32l-3.81-2.6A.9.9,0,0,1,108,232.11Z" transform="translate(-83.21 -115.16)"/><path class="cls-23" d="M104.63,240.76a4,4,0,0,1,.69-3A7.26,7.26,0,0,1,106,237a.9.9,0,0,1,.43-.28,1.27,1.27,0,0,1,.92.21,1.63,1.63,0,0,1,.76.75,1,1,0,0,1-.55,1.21.18.18,0,0,0-.11.1.35.35,0,0,0,.07.23,1.7,1.7,0,0,1,.3,1,.58.58,0,0,1-.68.51c-.15,0-.35-.08-.4,0a.28.28,0,0,0,0,.13,1,1,0,0,1-.23.83.28.28,0,0,1-.18.12.49.49,0,0,1-.2,0,2.51,2.51,0,0,1-.67-.3" transform="translate(-83.21 -115.16)"/><path class="cls-23" d="M110.22,241.64c-.07-.43-.22-1.13-.24-1.56a3.53,3.53,0,0,0-1.67-2.9.43.43,0,0,0-.27-.08.3.3,0,0,0-.22.26.87.87,0,0,0,.05.36c.12.37.64,1.06.48,1.44a4.26,4.26,0,0,0-.41,1.79c0,.55.27,1.44.92,1.53" transform="translate(-83.21 -115.16)"/><line class="cls-30" x1="12.34" y1="97.4" x2="14.89" y2="103.41"/><line class="cls-30" x1="7.03" y1="102.74" x2="12.25" y2="106.65"/><line class="cls-30" x1="3.67" y1="110.01" x2="10.15" y2="110.65"/><path class="cls-23" d="M294.7,162s-2.33-1.65-2.42-2.34a16.2,16.2,0,0,0-2.22-4,12.67,12.67,0,0,0-3.84-1.59c-.58-.08-3.92.2-3.51.66s2.58.29,3,.54l.41.25s-.41.56-.25.9-.71.87-.38,1.45-.13.55.17,1.15c.49,1,1.75,1.57,2.08,1.29.25.6,1.2,1.81,2.1,1.73s3.07,1.95,3.07,1.95" transform="translate(-83.21 -115.16)"/><path class="cls-23" d="M330.22,150.33c.08,1.57,0,4.29.42,4.7s1.89.34,1.89.34-5.17,6.53-5.63,6.17-6.58-5.34-5.2-5.6,2.71-.2,2.68-.91l-.12-2.13" transform="translate(-83.21 -115.16)"/><path class="cls-5" d="M336.12,185.24s-10.09,1.15-12.41,1.2-2.21-1.17-2.21-1.17a92.86,92.86,0,0,0-1-10.62c-.45-1.91-.65-2.61-1-4.42-.87-4-.83-4.79-1.75-9.76l6-4.85a3.17,3.17,0,0,0,3.15,1.89,4.59,4.59,0,0,0,4.42-2.32l8.22,5.45.77,13.28-1,10.93" transform="translate(-83.21 -115.16)"/><path class="cls-23" d="M330.33,148.91a16.81,16.81,0,0,1-.71,2.32,2.62,2.62,0,0,1-2.78,1.92l-3.09.07a3.49,3.49,0,0,1-2.41-.51,3.61,3.61,0,0,1-.79-2.23c-.18-1-.32-2-.44-2.94a43.39,43.39,0,0,1-.27-5.81,5.29,5.29,0,0,1,.07-.8.64.64,0,0,1,.13-.29.63.63,0,0,1,.37-.14,31.73,31.73,0,0,1,5.84-.38,6.64,6.64,0,0,1,3.94,1,7.4,7.4,0,0,1,2.08,3.53c.08.21.14.49,0,.62" transform="translate(-83.21 -115.16)"/><path class="cls-31" d="M307.71,221.22a21.53,21.53,0,0,0,.6,2.7c.27.68,2.52.05,2.67-.39a20.41,20.41,0,0,0-.71-3.71" transform="translate(-83.21 -115.16)"/><path class="cls-32" d="M311.76,224.09c.2.74.44,2.16.44,2.16l-2.25,1-.37-.34a4.13,4.13,0,0,1-1.24,1,9.29,9.29,0,0,1-2.18.6c-2,.22-3.41-.15-3.53-.43-.48-1.13,2.12-1.44,2.64-1.57a3.49,3.49,0,0,0,2.47-2.48c.11-.59,0-.7.3-.68a.77.77,0,0,1,.56.26,1.43,1.43,0,0,0,1.6.38,1.67,1.67,0,0,0,.79-.67A1,1,0,0,1,311.76,224.09Z" transform="translate(-83.21 -115.16)"/><path class="cls-26" d="M317.65,195a38.09,38.09,0,0,1-11.48.27c.49,1.43,1.71,3.25,2.18,5.26,1.53,6.62,2.06,15.52,2.45,21,0,0-.74,1.42-3.09.34-3.53-8.7-9.67-26.33-9.62-30.15.07-4.87,12.23-6.05,21.13-7.25" transform="translate(-83.21 -115.16)"/><path class="cls-33" d="M333.18,185.25c2.8,2.05-15.53,9.75-15.53,9.75a30,30,0,0,1-6,.57,4.24,4.24,0,0,1-.45-1.13c-.11-.53-.05-1.09-.14-1.62a3.8,3.8,0,0,0-1.84-2.47,8.22,8.22,0,0,0-3-1,40.11,40.11,0,0,0-6.8-.12c5.5-4.06,16.77-4.59,22-4.93C322.46,186,332.78,185,333.18,185.25Z" transform="translate(-83.21 -115.16)"/><path class="cls-31" d="M313.52,225.85a22.54,22.54,0,0,0,.12,2.76c.15.72,2.47.49,2.7.08a20.83,20.83,0,0,0-.06-3.77" transform="translate(-83.21 -115.16)"/><path class="cls-32" d="M317,229.38c.06.76.06,2.2.06,2.2l-2.38.58-.31-.41a4.16,4.16,0,0,1-1.4.77,9.48,9.48,0,0,1-2.25.21c-2-.13-3.33-.74-3.4-1-.28-1.2,2.34-1,2.87-1.1a3.45,3.45,0,0,0,2.86-2c.22-.56.09-.69.42-.62a.79.79,0,0,1,.5.36,1.4,1.4,0,0,0,1.51.64,1.63,1.63,0,0,0,.9-.51A1,1,0,0,1,317,229.38Z" transform="translate(-83.21 -115.16)"/><path class="cls-26" d="M339.29,184.85a114.63,114.63,0,0,1-12.42.39c-1.58,0-13.57,2.25-14.72,4.28-1.89,3.35,1.23,22.88.94,36.87,0,0,1.44,1.2,4,.07.63-6.87,4.69-23.08,1.89-30.64,6.61.87,12,1.75,18-.25a4.79,4.79,0,0,0,3.09-3.28A11.53,11.53,0,0,0,339.29,184.85Z" transform="translate(-83.21 -115.16)"/><path class="cls-5" d="M323.71,155.62s-1.44.08-1.72.11a13.1,13.1,0,0,0-3.57.67c-1.63.61-2.78,2.13-4.11,3.31s-7.92,7.47-9.16,7.71S293,160.2,293,160.2l-2.65,2.66s11.79,10.89,15.31,10.91c1.71,0,11.12-5,14.13-6.87Z" transform="translate(-83.21 -115.16)"/><path class="cls-34" d="M305.73,171.68c-2.43.14-13.54-8.35-14.83-9.34l-.51.52s11.79,10.89,15.31,10.91c1.42,0,8.19-3.43,12.15-5.69l1-.6-.61-3.66S308.3,171.53,305.73,171.68Z" transform="translate(-83.21 -115.16)"/><path class="cls-35" d="M294.41,187h27l-4.84-15.78a2.08,2.08,0,0,0-2-1.47H290.94a1.35,1.35,0,0,0-1.29,1.74Z" transform="translate(-83.21 -115.16)"/><path class="cls-3" d="M294.07,187h26.59l-4.84-15.78a2.07,2.07,0,0,0-2-1.47H290.2a1.34,1.34,0,0,0-1.29,1.74l4.64,15.12A.55.55,0,0,0,294.07,187Z" transform="translate(-83.21 -115.16)"/><g class="cls-12"><path class="cls-36" d="M335.58,163.23a106.22,106.22,0,0,0-2,15.17C328.9,180.23,327,183,322.37,185c0,0-3.65-.6-4,.77-.22.8,4.27,1.43,4.27,1.43,4.28,0,15.56-3.11,16.32-3.32s3-14.55,3.08-22.33a4.91,4.91,0,0,0-.72-3.17,4.31,4.31,0,0,0-1.39-1,19.34,19.34,0,0,0-8.62-2.17" transform="translate(-83.21 -115.16)"/></g><path class="cls-23" d="M323,186a2.69,2.69,0,0,0-2.24-.72,18,18,0,0,0-1.8.15c-.28,0-.59.1-.62.39s1.32,0,2,.21a34.16,34.16,0,0,1-4.17.11,1.27,1.27,0,0,0-.48.05.41.41,0,0,0-.27.37.47.47,0,0,0,.19.32,2.91,2.91,0,0,0,1.43.57,11,11,0,0,0,6.35-.56" transform="translate(-83.21 -115.16)"/><path class="cls-5" d="M335.29,163.12c-.11,6.49-.57,9.46-.45,16-3.26.69-7.77,4.38-12.38,6.44a2.41,2.41,0,0,0,.15,1.69c.35.13,15.57-3.58,16.78-4.69s2.53-13.18,2.62-21a4.91,4.91,0,0,0-.72-3.17,4.31,4.31,0,0,0-1.39-1,19.34,19.34,0,0,0-8.62-2.17" transform="translate(-83.21 -115.16)"/><path class="cls-37" d="M307.79,178.67c.1,1.39-1.53,2.51-3.65,2.51s-3.9-1.12-4-2.51,1.54-2.5,3.65-2.5S307.7,177.29,307.79,178.67Z" transform="translate(-83.21 -115.16)"/><ellipse class="cls-8" cx="303.97" cy="178.67" rx="1.39" ry="2.43" transform="translate(30.38 360.29) rotate(-87.77)"/><path class="cls-38" d="M325.58,144.76c-.05-.24-.59-.29-1.13-.22a8.7,8.7,0,0,0-2.28.48c-.3.23-.28.4-.44.41s-.17-.14-.51-.29a4.54,4.54,0,0,0-1.72,0c-.54.07-1.06.19-1.05.44a1.42,1.42,0,0,0,.22.75c.11.06.11.05.54,1a1,1,0,0,0,1.3.71c.89-.19.95-1.21,1-1.63s.13-.49.26-.51.23,0,.4.42.3,1.3,1.21,1.36c1.2.06,1.72-.35,1.88-1.11.23-1,.17-1.05.26-1.14a6.15,6.15,0,0,1,.9.08l0-.31A6.74,6.74,0,0,1,325.58,144.76Zm-4.34,2.09a1,1,0,0,1-.88,1.09c-.55.07-.8-.22-1.1-.92a1.81,1.81,0,0,1-.17-1.27c.09-.17.38-.16,1.07-.2s.9-.06,1,.24A3.55,3.55,0,0,1,321.24,146.85Zm3.9-.57c-.12.75-.39,1.11-1.14,1.2-1.07.13-1.27-.29-1.43-.79a3.73,3.73,0,0,1-.2-1.05c0-.32.26-.36.93-.49s1.56-.28,1.69-.14A1.79,1.79,0,0,1,325.14,146.28Z" transform="translate(-83.21 -115.16)"/><path class="cls-29" d="M332.8,143.1a13.32,13.32,0,0,0-.3-1.6,5.15,5.15,0,0,0-2.49-3.27,8,8,0,0,0-5.65-.56c-1,.29-1.41.83-1.95.82A5.9,5.9,0,0,1,321,138c-4-1.45-3.36,2.5-2.93,3.59.19.48,1.1.83,1.23,1a11.34,11.34,0,0,1,.18,1.61.85.85,0,0,0,.51.59s0-1.27,0-1.45a1.6,1.6,0,0,1,.59-1.19,3.7,3.7,0,0,1,1.46-.4,10.76,10.76,0,0,1,3,.49c.75.64,1,2.12,1.16,3,.1.4.2.68.36.67.13-1.2.54-1.23,1.26-.82a2.13,2.13,0,0,1,.61,1.62,1.71,1.71,0,0,1-1.21,1.76c-.28.06.58,1.69,1,2.1a2.54,2.54,0,0,0,.43.37,1.64,1.64,0,0,0,.48.18l.58.16a1.53,1.53,0,0,0,.79.07c.43-.13.65-.58.84-1,.32-.65.68-1.28.94-2A11.8,11.8,0,0,0,332.8,143.1Z" transform="translate(-83.21 -115.16)"/><path class="cls-3" d="M405.54,202.93h-51.1l6.12-4.52V176.3A3.34,3.34,0,0,1,363.9,173h41.64a3.34,3.34,0,0,1,3.34,3.33v23.29A3.34,3.34,0,0,1,405.54,202.93Z" transform="translate(-83.21 -115.16)"/><rect class="cls-39" x="297.88" y="62.11" width="23.35" height="2.23"/><rect class="cls-39" x="297.88" y="65.45" width="23.35" height="2.23"/><rect class="cls-39" x="297.88" y="68.79" width="23.35" height="2.23"/><rect class="cls-39" x="297.88" y="72.04" width="23.35" height="2.23"/><rect class="cls-39" x="297.88" y="75.93" width="16.29" height="2.23"/><rect class="cls-4" x="281.38" y="62.11" width="14.67" height="17.15" rx="3.39"/><rect class="cls-39" x="281.38" y="81.4" width="14.67" height="1.84"/><path class="cls-11" d="M373.37,188.41H368a.66.66,0,0,1-.64-.49l-1-3.79a.65.65,0,0,1,.64-.83h7.37a.66.66,0,0,1,.64.83l-1,3.79A.66.66,0,0,1,373.37,188.41Z" transform="translate(-83.21 -115.16)"/><path class="cls-11" d="M374.3,189.26h-6.41a.13.13,0,0,1-.13-.13.13.13,0,0,1,.13-.14h6.31l2.23-7.78a.14.14,0,0,1,.13-.09H378a.13.13,0,1,1,0,.26h-1.3l-2.23,7.78A.14.14,0,0,1,374.3,189.26Z" transform="translate(-83.21 -115.16)"/><path class="cls-11" d="M368.87,190.3a.77.77,0,0,1-.77.78.78.78,0,0,1,0-1.56A.77.77,0,0,1,368.87,190.3Z" transform="translate(-83.21 -115.16)"/><circle class="cls-11" cx="290.53" cy="75.14" r="0.78"/><path class="cls-3" d="M215.72,172.07h65.1L273,166.3V130.68a4.25,4.25,0,0,0-4.25-4.25h-53a4.25,4.25,0,0,0-4.26,4.25v37.13A4.26,4.26,0,0,0,215.72,172.07Z" transform="translate(-83.21 -115.16)"/><g class="cls-40"><rect class="cls-11" x="217.12" y="133.03" width="29.75" height="2.85" transform="translate(380.78 153.75) rotate(180)"/><rect class="cls-11" x="217.12" y="137.28" width="29.75" height="2.85" transform="translate(380.78 162.25) rotate(180)"/><rect class="cls-11" x="217.12" y="141.54" width="29.75" height="2.85" transform="translate(380.78 170.76) rotate(180)"/><rect class="cls-11" x="217.12" y="145.68" width="29.75" height="2.85" transform="translate(380.78 179.05) rotate(180)"/><rect class="cls-11" x="217.12" y="149.83" width="29.75" height="2.85" transform="translate(380.78 187.33) rotate(180)"/><rect class="cls-11" x="217.12" y="157.36" width="29.75" height="2.85" transform="translate(380.78 202.39) rotate(180)"/><rect class="cls-11" x="217.12" y="161.84" width="50.78" height="2.85" transform="translate(401.81 211.36) rotate(180)"/></g><rect class="cls-4" x="249.21" y="133.03" width="18.69" height="21.85" rx="4.31" transform="translate(433.9 172.75) rotate(180)"/><rect class="cls-41" x="249.21" y="157.61" width="18.69" height="2.35" transform="translate(433.9 202.39) rotate(180)"/><path class="cls-4" d="M256.71,147.21h6.78a.85.85,0,0,0,.82-.62l1.3-4.82a.84.84,0,0,0-.81-1.07h-9.4a.84.84,0,0,0-.81,1.07l1.3,4.82A.85.85,0,0,0,256.71,147.21Z" transform="translate(-83.21 -115.16)"/><path class="cls-4" d="M255.51,148.3h8.17a.17.17,0,0,0,0-.34h-8l-2.84-9.91a.17.17,0,0,0-.16-.13h-1.78a.18.18,0,0,0-.17.17.17.17,0,0,0,.17.17h1.65l2.84,9.91A.17.17,0,0,0,255.51,148.3Z" transform="translate(-83.21 -115.16)"/><path class="cls-4" d="M262.43,149.63a1,1,0,1,0,1-1A1,1,0,0,0,262.43,149.63Z" transform="translate(-83.21 -115.16)"/><path class="cls-4" d="M255.25,149.63a1,1,0,1,0,1-1A1,1,0,0,0,255.25,149.63Z" transform="translate(-83.21 -115.16)"/><ellipse class="cls-4" cx="283.08" cy="241.37" rx="28.69" ry="3.02"/><path class="cls-28" d="M350.89,352.24a7.13,7.13,0,0,1-3,2.27c-1.6.71-5,1.05-3.11,1.68a11.24,11.24,0,0,0,5.19.07,21.38,21.38,0,0,1,3.5-.21c1.73,0,1.74-.12,1.51-2.07C354.67,351.3,351.67,350.73,350.89,352.24Z" transform="translate(-83.21 -115.16)"/><path class="cls-28" d="M382.21,351.27c-.09.54.68,2.18-.7,3.38s-4.49,2.48-2.43,2.52a12,12,0,0,0,5.11-.95c1.05-.52.21-1.34,1.52-1.75,1.72-.54,1.36-1.8.47-2.59C385,349.31,382.52,349.52,382.21,351.27Z" transform="translate(-83.21 -115.16)"/><path class="cls-26" d="M375.62,296.66s4.12-12.11-7.56-22.09c0,0-6.27,2.49-11.28,2.79a28,28,0,0,1-6-.12s-.33,10.76-.35,16.56Z" transform="translate(-83.21 -115.16)"/><path class="cls-26" d="M349.53,316.78c-.23-5.42,5.64-4.71,7.81-.66,4.48,8.36-1.65,27.63-2.46,36.76a4.68,4.68,0,0,1-3.1.2,2.19,2.19,0,0,1-.91-1C351,340.88,349.77,322.57,349.53,316.78Z" transform="translate(-83.21 -115.16)"/><path class="cls-26" d="M357.13,317.6c-.67,2.21-8.17,4.54-7.56-3.51.27-3.57,1-23.29,1.13-25.19s.45-4.68,1.37-5c4.59-1.74,12.72,4.27,11.51,11.41C362.77,300.06,358.54,313,357.13,317.6Z" transform="translate(-83.21 -115.16)"/><path class="cls-26" d="M368.93,320.67c-1.81-5.11,4.08-6,7.42-2.86,7.82,7.37,8.12,24.73,10,33.7a6.94,6.94,0,0,1-3.42,1A1.27,1.27,0,0,1,382,352C378.86,341.27,370.87,326.13,368.93,320.67Z" transform="translate(-83.21 -115.16)"/><path class="cls-26" d="M376.66,319c.21,2.3-6,7.06-8.5-.63-1.09-3.41-5.76-23.56-6.34-25.37s-.43-5.56.29-6.23c3.61-3.33,11.75-.4,13.31,6.67C376.46,298.17,376.24,314.23,376.66,319Z" transform="translate(-83.21 -115.16)"/><path class="cls-42" d="M344.48,230.78a8,8,0,0,0,.62-.69c1.48-1.9,1.7-3.57,3.07-5.77a16.12,16.12,0,0,1,1-1.91,7.94,7.94,0,0,1,2.22-1.83c.64-.33.09,1.08.09,1.08s.55-.79,1.07-.73c.21,0,.24,1.23.25,1.43a10.21,10.21,0,0,1-1.13,4.79,2.38,2.38,0,0,0-.38,1.08,2.45,2.45,0,0,0,1.29-.63,1.56,1.56,0,0,1,1.35-.4,3.23,3.23,0,0,1-.26.57,5.92,5.92,0,0,1-2.36,2.8c-.67.32-1.45.37-2.11.72-1.18.63-1.76,2.09-3,2.69" transform="translate(-83.21 -115.16)"/><rect class="cls-43" x="349.01" y="221.41" width="5.12" height="9.42" rx="0.65" transform="translate(31.28 -233.32) rotate(22.7)"/><rect class="cls-44" x="349.55" y="221.97" width="4.29" height="8.41" transform="translate(31.31 -233.36) rotate(22.7)"/><path class="cls-24" d="M355.3,238.44a28.18,28.18,0,0,0-5.72,1c-4.07,1.22-5.47,3.11-6.87,3.89,2.73-3.47,5.77-10.83,5.77-10.83s-3.67-3-4.09-2.3S328.55,248.91,329,251.83c.2,1.21,2,2.4,3.56,2.34,4.37-.15,9.44-1.74,14.76-3.48,2.34-.76,3.06.89,3.06.89" transform="translate(-83.21 -115.16)"/><path class="cls-45" d="M342.71,243.3s-1.95,3.91-2.53,4.16a31.49,31.49,0,0,0,2.51-1.94,23.36,23.36,0,0,0,2.59-4.09A22.12,22.12,0,0,0,342.71,243.3Z" transform="translate(-83.21 -115.16)"/><path class="cls-42" d="M348.8,224.34a1,1,0,0,1,.27.62,4.84,4.84,0,0,1-.08,2.59,3.55,3.55,0,0,1-1,1.33,8.29,8.29,0,0,1-1.59,1.09" transform="translate(-83.21 -115.16)"/><path class="cls-46" d="M355.4,217.83c-1,.3-1.58,1.63-1.93,2.54a14.25,14.25,0,0,0-.77,3.42,4.79,4.79,0,0,0,.17,2.41,5.43,5.43,0,0,0,.67,1,2.16,2.16,0,0,0,.49.51.74.74,0,0,0,.67.12,1.14,1.14,0,0,0,.54-.83,21.84,21.84,0,0,1,2.46-6.23" transform="translate(-83.21 -115.16)"/><path class="cls-42" d="M354.25,224.68c0-.69-.74-1.14-1.37-.43a4.33,4.33,0,0,0-.68,2.54c0,1,.73,1.18,1.36,1.32" transform="translate(-83.21 -115.16)"/><path class="cls-24" d="M347.38,242c1.27-1.46,5.3-3.86,10.69-3.69,3.71.11,13.83.73,15,3.21.57,1.27,1.19,14.27.35,18.76-.64,3.37-2.26,11.72-2.26,13.74s1.08,2.88.57,3.46c-1.13,1.31-8.87,1.86-12.5,1.86-3.23,0-8.74-.86-9-1.89-.41-1.54.64-1.48.78-3.1s.55-12.07-.05-13.78c-1.07-3.1-1.59-8.14-2.44-10.42C347.82,248.41,346.11,243.45,347.38,242Z" transform="translate(-83.21 -115.16)"/><path class="cls-45" d="M370.54,252.52c.38.8,3,5,3,5l.11.5c-.07.87-.16,1.64-.27,2.25-.64,3.37-2.26,11.72-2.26,13.74s1,2.84.57,3.46c-.89,1.21-15.48,3.93-14.76.55.06-.3,12.24-9.6,12.31-9.91.56-2.66,1.05-4.59,1.3-6.53C371.13,256.91,370.15,251.71,370.54,252.52Z" transform="translate(-83.21 -115.16)"/><path class="cls-47" d="M355.13,233.65a40.17,40.17,0,0,1-.2,4.41,6.57,6.57,0,0,1-1,.56s.6,3.68,1.52,3.4,7-3.34,7-3.34-.86-.35-.86-.69.82-7,.82-7" transform="translate(-83.21 -115.16)"/><path class="cls-47" d="M359.36,218.29c-.89.24-3.22-.24-3.87.72a22.45,22.45,0,0,0-1.45,4c-.48,1.29-.79,2.66-1.14,4-.46,1.73-1.21,4.88.48,6.33a2.26,2.26,0,0,0,1.3.66c.8.14,1.59.3,2.39.45a8.05,8.05,0,0,0,3.84.08c1.64-.53,2.54-2.79,3-4.32l2.42-8.79Z" transform="translate(-83.21 -115.16)"/><path class="cls-48" d="M355,243.67s-.35,16.51-1,26.55l2.42,3.35,1.67-4.19a127.16,127.16,0,0,0-1.58-25.59Z" transform="translate(-83.21 -115.16)"/><path class="cls-48" d="M354.42,242.22l.06.23a4.82,4.82,0,0,0,.5,1.22h0l1.49.12s1-.53,1.15-1.1-1.66-1.51-1.66-1.51l-.22.09a3.35,3.35,0,0,0-1.3.93Z" transform="translate(-83.21 -115.16)"/><path class="cls-11" d="M361.69,237a6.16,6.16,0,0,1,1.69,1.72c-.76,1.75-2.49,4.87-4.4,6.28a8.61,8.61,0,0,0-3-3.78S361.15,240.26,361.69,237Z" transform="translate(-83.21 -115.16)"/><path class="cls-11" d="M356,241.18a6.4,6.4,0,0,0-3,2.82,14.14,14.14,0,0,1,.4-5.23s1.22-1.56,1.64-1.59A8.22,8.22,0,0,0,356,241.18Z" transform="translate(-83.21 -115.16)"/><path class="cls-42" d="M356.19,278a5.49,5.49,0,0,0-3.56,2,.35.35,0,0,0-.16.3c0,.15.2.21.34.24.86.14,1-.41,1.8-.75l1.62-.69" transform="translate(-83.21 -115.16)"/><path class="cls-49" d="M349.93,264.59l6.54,21a.76.76,0,0,1-.7,1.06l-13.64,1.19a1.24,1.24,0,0,1-1.14-.88l-7-20.63c-.18-.57.63-1.37,1.18-1.37l13.64-1.2A1.28,1.28,0,0,1,349.93,264.59Z" transform="translate(-83.21 -115.16)"/><path class="cls-50" d="M349.48,265.14l6.45,20.63a.75.75,0,0,1-.7,1.05L341.59,288a1.27,1.27,0,0,1-1.14-.88L334,266.51a.76.76,0,0,1,.69-1.06l13.65-1.19A1.25,1.25,0,0,1,349.48,265.14Z" transform="translate(-83.21 -115.16)"/><polygon class="cls-11" points="255.38 149.3 255.86 151.11 262.24 150.55 261.72 148.75 255.38 149.3"/><path class="cls-11" d="M339.79,262.79l.64,2,3-.28-.63-2a2.07,2.07,0,0,0-2-1.46A1.25,1.25,0,0,0,339.79,262.79Zm.68,0a.7.7,0,0,1,.57-1,1.16,1.16,0,0,1,1.13.82.69.69,0,0,1-.57,1A1.15,1.15,0,0,1,340.47,262.75Z" transform="translate(-83.21 -115.16)"/><path class="cls-47" d="M361.39,276.57c-1.43.3-5.25,1.44-5.65,1.63a17.47,17.47,0,0,0-2.43,1.79c-1.43,1.44-.7,2.12-1.27,4.07a1.55,1.55,0,0,0,0,.31c0,.2.27.38.55.19.15.25.59.09.81-.18,0,.19.27.32.71.07.24-.13.19-.12.74-.6a5.85,5.85,0,0,1,1.55-1,11.59,11.59,0,0,0,1.52-.69c.58-.38,1.61-.47,2.12-2.13a1.62,1.62,0,0,1,.8-.79l2.33-1.46" transform="translate(-83.21 -115.16)"/><path class="cls-24" d="M370.18,249.73c.61,2.16,3.13,17.16,3.13,17.16l-14.21,10.3,1.18,3.11s17-5.72,18.35-9.62,1.28-21.54-3.44-27.73a10.86,10.86,0,0,0-4.52-3" transform="translate(-83.21 -115.16)"/><path class="cls-42" d="M355.6,282a9.91,9.91,0,0,0-1.09,1,6.58,6.58,0,0,1-1.05,1.13,6.56,6.56,0,0,1,.87-1.28,2.43,2.43,0,0,1,.6-.51A5.57,5.57,0,0,1,355.6,282Z" transform="translate(-83.21 -115.16)"/><path class="cls-42" d="M354.82,281a3.65,3.65,0,0,0-.61.74,5.29,5.29,0,0,0-.49.81,7,7,0,0,1-1,1.67c.22-.62.53-1.19.79-1.77a3.45,3.45,0,0,1,.57-.81A2.56,2.56,0,0,1,354.82,281Z" transform="translate(-83.21 -115.16)"/><path class="cls-42" d="M353.92,280.27a8.36,8.36,0,0,1-.57.76,3.08,3.08,0,0,0-.41.81l-.67,1.74a4.7,4.7,0,0,1,.45-1.84,2.6,2.6,0,0,1,.52-.81C353.46,280.69,353.71,280.51,353.92,280.27Z" transform="translate(-83.21 -115.16)"/><path class="cls-29" d="M364.78,228.61c-.56-.32-1-.67-1.35-.13-.19.28-.31.67-.64.77a.66.66,0,0,1-.74-.53,1.91,1.91,0,0,1,.12-1c.22-.72.45-1.44.67-2.16a3.27,3.27,0,0,0,.16-2.17,2.4,2.4,0,0,0-.68-.87A7.26,7.26,0,0,0,359,221.1a35.87,35.87,0,0,1-3.57-.74,3.78,3.78,0,0,1-1.36-.68,2.93,2.93,0,0,1-1-2.2,4.66,4.66,0,0,1,.7-2.34,3.92,3.92,0,0,0,.36.81,3,3,0,0,1,.65-1c.35,1.94,8.49,1.29,10.4,2.14,1.32.59,2.41,1,2.37,3.12a.84.84,0,0,0,.25.34,6,6,0,0,1,1.83,4.32c.18,2.37-1.21,4.94-2.56,6.9a4.33,4.33,0,0,1-1,1.2,2.67,2.67,0,0,1-1.89.43c-.59-.11-1.74-.06-1.76-.66,0-.43.91-1.19,1.16-1.54" transform="translate(-83.21 -115.16)"/><path class="cls-47" d="M362.65,230.85a.91.91,0,0,0,.15.72.9.9,0,0,0,1,.13,2.58,2.58,0,0,0,1.63-2c.19-1-.36-2.06-1.3-1.79a1.4,1.4,0,0,0-.89,1.35" transform="translate(-83.21 -115.16)"/><path class="cls-42" d="M355.14,234l2.61.48a3.65,3.65,0,0,1-2.65,1" transform="translate(-83.21 -115.16)"/><g class="cls-51"><polyline class="cls-3" points="66.75 74.05 70.25 75.81 68.5 71.51"/><path class="cls-3" d="M139.09,183.72a7.41,7.41,0,1,0,7.4-7A7.21,7.21,0,0,0,139.09,183.72Z" transform="translate(-83.21 -115.16)"/><path class="cls-52" d="M144.68,181.42v5a.53.53,0,0,0,.79.46l4.32-2.5a.52.52,0,0,0,0-.9l-4.32-2.5A.53.53,0,0,0,144.68,181.42Z" transform="translate(-83.21 -115.16)"/></g><g class="cls-51"><polyline class="cls-3" points="308.95 127.15 305.45 128.91 307.2 124.61"/><path class="cls-3" d="M403,236.82a7.41,7.41,0,1,1-7.4-7A7.2,7.2,0,0,1,403,236.82Z" transform="translate(-83.21 -115.16)"/><path class="cls-52" d="M394.29,240.16c1.62,0,3.25.05,4.73,0,.47,0,.88-.73.31-1a1.06,1.06,0,0,0,.59-.49.46.46,0,0,0-.29-.62c.56.13.78-.71.34-1a1.25,1.25,0,0,0,.48-.72.71.71,0,0,0-.34-.73,1.31,1.31,0,0,0-.59-.1h-2a4.13,4.13,0,0,0-.3-2.94c-.16-.26-.59-.58-.93-.38s-.23.66-.22,1a3.3,3.3,0,0,1-1.83,3S394.31,238.82,394.29,240.16Z" transform="translate(-83.21 -115.16)"/><rect class="cls-52" x="308.07" y="121.04" width="2.44" height="3.96"/></g><g class="cls-51"><polyline class="cls-3" points="196.95 66.54 199.5 63.78 196 64.47"/><path class="cls-3" d="M270.69,182.34a5.37,5.37,0,1,0,5.37-5.06A5.22,5.22,0,0,0,270.69,182.34Z" transform="translate(-83.21 -115.16)"/><path class="cls-52" d="M275,184.77c1.06,0,2.13,0,3.1,0,.31,0,.57-.53.2-.69a.72.72,0,0,0,.38-.35.35.35,0,0,0-.18-.46c.36.1.51-.51.22-.7a.94.94,0,0,0,.31-.52.54.54,0,0,0-.22-.54,1,1,0,0,0-.38-.07h-1.32a3.3,3.3,0,0,0-.2-2.13c-.1-.19-.38-.42-.61-.27s-.15.48-.14.69a2.45,2.45,0,0,1-1.2,2.22S275,183.8,275,184.77Z" transform="translate(-83.21 -115.16)"/><rect class="cls-52" x="189.84" y="66.73" width="1.6" height="2.87"/></g><g class="cls-51"><path class="cls-3" d="M305.14,144.69a7.93,7.93,0,1,0-1.8,1.65l3.07,1.64Z" transform="translate(-83.21 -115.16)"/><path class="cls-11" d="M295.61,137.59a1.93,1.93,0,0,1,2.74,0l.49.5.51-.5a1.93,1.93,0,0,1,2.71,2.76l-1.88,1.85h0a1.88,1.88,0,0,1-1.06.53,1.9,1.9,0,0,1-1.67-.56l-1.85-1.89A1.93,1.93,0,0,1,295.61,137.59Z" transform="translate(-83.21 -115.16)"/></g></g></g></svg>