<svg id="Layer_1" data-name="Layer 1" xmlns="http://www.w3.org/2000/svg" viewBox="0 0 562.6 338.3"><defs><style>.cls-1{fill:#f9bfb5;}.cls-2{fill:#fc796b;}.cls-3,.cls-5{fill:#fff9fb;stroke:#fc796b;}.cls-3,.cls-4,.cls-5{stroke-miterlimit:10;}.cls-3{stroke-width:3px;}.cls-4,.cls-8{fill:#fff;}.cls-4{stroke:#f34d26;stroke-width:4px;}.cls-5{stroke-width:2px;}.cls-6{fill:none;}.cls-7{fill:#f3441c;}</style></defs><title>icon1</title><circle class="cls-1" cx="281.78" cy="169.15" r="169.15"/><rect class="cls-2" x="533.66" y="94.04" width="28.94" height="5.67"/><rect class="cls-2" x="507.56" y="94.04" width="17.47" height="5.67"/><circle class="cls-3" cx="546.54" cy="306.1" r="12.85"/><circle class="cls-3" cx="17.67" cy="22.04" r="12.85"/><rect class="cls-2" x="26.1" y="233.26" width="28.94" height="5.67"/><rect class="cls-2" y="233.26" width="17.47" height="5.67"/><rect class="cls-4" x="105.53" y="43.32" width="352.96" height="250.82" rx="5"/><circle class="cls-5" cx="126.04" cy="60.74" r="6.42"/><circle class="cls-5" cx="158.57" cy="60.74" r="6.42"/><circle class="cls-5" cx="191.3" cy="60.74" r="6.42"/><rect class="cls-6" x="105.53" y="43.32" width="352.96" height="250.82" rx="5"/><rect class="cls-6" x="105.53" y="73.96" width="352.96" height="6.81"/><rect class="cls-7" x="105.07" y="73.96" width="352.96" height="3.93"/><rect class="cls-7" x="123.41" y="219.75" width="219.61" height="4.21" transform="translate(435.79 -48.04) rotate(90)"/><rect class="cls-2" x="132.06" y="117.66" width="56.18" height="5.82"/><rect class="cls-2" x="132.06" y="140.64" width="56.18" height="5.82"/><rect class="cls-2" x="132.06" y="163.62" width="56.18" height="5.82"/><rect class="cls-2" x="132.06" y="185.9" width="56.18" height="5.82"/><rect class="cls-2" x="132.06" y="209.3" width="56.18" height="5.82"/><rect class="cls-2" x="132.06" y="232" width="56.18" height="5.82"/><rect class="cls-2" x="341.45" y="117.66" width="56.18" height="5.82"/><rect class="cls-2" x="341.45" y="140.64" width="56.18" height="5.82"/><rect class="cls-2" x="341.45" y="163.62" width="56.18" height="5.82"/><rect class="cls-2" x="270.66" y="185.9" width="126.97" height="5.82"/><rect class="cls-2" x="270.66" y="209.3" width="126.97" height="5.82"/><rect class="cls-2" x="270.66" y="232" width="126.97" height="5.82"/><rect class="cls-2" x="270.66" y="117.66" width="52.77" height="51.07"/><rect class="cls-8" x="276.76" y="123.56" width="40.57" height="39.26"/></svg>