<?xml version="1.0" encoding="UTF-8"?>
<!DOCTYPE svg PUBLIC "-//W3C//DTD SVG 1.1//EN" "http://www.w3.org/Graphics/SVG/1.1/DTD/svg11.dtd">
<!-- Creator: CorelDRAW X8 -->
<svg xmlns="http://www.w3.org/2000/svg" xml:space="preserve" width="127.119mm" height="11.5947mm" version="1.1" style="shape-rendering:geometricPrecision; text-rendering:geometricPrecision; image-rendering:optimizeQuality; fill-rule:evenodd; clip-rule:evenodd"
viewBox="0 0 12700 1158"
 xmlns:xlink="http://www.w3.org/1999/xlink">
 <defs>
  <style type="text/css">
   <![CDATA[
    .fil0 {fill:#E6402A;fill-rule:nonzero}
   ]]>
  </style>
 </defs>
 <g id="Layer_x0020_1">
  <metadata id="CorelCorpID_0Corel-Layer"/>
  <path class="fil0" d="M1248 8l-494 1142 -261 0 -493 -1142 286 0 347 816 352 -816 263 0zm979 930l0 212 -884 0 0 -1142 863 0 0 212 -601 0 0 248 531 0 0 206 -531 0 0 264 622 0zm1258 -930l0 1142 -217 0 -569 -693 0 693 -261 0 0 -1142 218 0 568 694 0 -694 261 0zm1041 821l-662 0 -146 321 -89 0 525 -1142 83 0 526 1142 -90 0 -147 -321zm-31 -70l-300 -659 -299 659 599 0zm1405 -751l0 1142 -69 0 -778 -992 0 992 -83 0 0 -1142 70 0 777 992 0 -992 83 0zm1104 821l-662 0 -145 321 -90 0 525 -1142 83 0 526 1142 -90 0 -147 -321zm-31 -70l-300 -659 -299 659 599 0zm475 -751l83 0 0 1067 658 0 0 75 -741 0 0 -1142zm1186 749l0 393 -83 0 0 -393 -460 -749 91 0 413 672 413 -672 86 0 -460 749zm1012 -674l-411 0 0 -75 905 0 0 75 -411 0 0 1067 -83 0 0 -1067zm700 -75l83 0 0 1142 -83 0 0 -1142zm964 1150c-112,0 -213,-25 -303,-75 -89,-50 -160,-119 -212,-207 -51,-88 -77,-187 -77,-297 0,-110 26,-209 77,-297 52,-88 123,-157 212,-207 90,-50 191,-75 303,-75 83,0 159,13 228,40 70,27 129,66 178,118l-52 54c-91,-90 -208,-135 -351,-135 -96,0 -183,21 -261,65 -78,43 -140,104 -184,180 -45,77 -67,163 -67,257 0,95 22,180 67,257 44,77 106,137 184,180 78,44 165,66 261,66 142,0 259,-46 351,-137l52 54c-49,52 -108,91 -178,119 -71,27 -146,40 -228,40zm979 0c-84,0 -164,-14 -239,-43 -76,-29 -135,-66 -177,-112l37 -62c41,43 95,77 163,104 68,27 139,40 214,40 109,0 191,-21 247,-62 55,-41 83,-95 83,-162 0,-51 -15,-91 -44,-122 -30,-30 -66,-54 -110,-70 -43,-16 -102,-33 -176,-51 -84,-20 -151,-40 -201,-60 -51,-20 -94,-50 -129,-91 -35,-40 -53,-95 -53,-164 0,-55 15,-106 44,-152 29,-46 74,-83 134,-110 61,-27 136,-41 226,-41 64,0 126,9 186,28 61,18 114,43 159,75l-31 67c-46,-32 -96,-56 -151,-72 -55,-16 -109,-25 -163,-25 -105,0 -185,22 -239,64 -55,42 -82,97 -82,165 0,51 15,92 44,122 29,31 66,54 109,70 44,17 103,34 178,53 84,20 151,40 201,60 50,20 93,49 128,89 35,40 53,93 53,161 0,55 -15,106 -45,151 -30,46 -76,82 -138,110 -62,27 -138,40 -228,40z"/>
 </g>
</svg>
